<svg width="45" height="44" viewBox="0 0 45 44" fill="none" xmlns="http://www.w3.org/2000/svg">
<path d="M4.33301 18.7C4.33301 16.6465 4.33301 15.6197 4.73265 14.8354C5.08419 14.1454 5.64512 13.5845 6.33504 13.233C7.11939 12.8333 8.14615 12.8333 10.1997 12.8333H35.133C37.1865 12.8333 38.2133 12.8333 38.9976 13.233C39.6876 13.5845 40.2485 14.1454 40.6 14.8354C40.9997 15.6197 40.9997 16.6465 40.9997 18.7V32.6333C40.9997 34.6869 40.9997 35.7136 40.6 36.498C40.2485 37.1879 39.6876 37.7488 38.9976 38.1004C38.2133 38.5 37.1865 38.5 35.133 38.5H10.1997C8.14615 38.5 7.11939 38.5 6.33504 38.1004C5.64512 37.7488 5.08419 37.1879 4.73265 36.498C4.33301 35.7136 4.33301 34.6869 4.33301 32.6333V18.7Z" fill="#26EAB8" fill-opacity="0.1"/>
<path d="M15.333 38.5V12.8333C15.333 11.1284 15.333 10.2759 15.5204 9.5765C16.029 7.67849 17.5115 6.19598 19.4095 5.68741C20.1089 5.5 20.9614 5.5 22.6663 5.5C24.3713 5.5 25.2238 5.5 25.9232 5.68741C27.8212 6.19598 29.3037 7.67849 29.8123 9.5765C29.9997 10.2759 29.9997 11.1284 29.9997 12.8333V38.5M10.1997 38.5H35.133C37.1865 38.5 38.2133 38.5 38.9976 38.1004C39.6876 37.7488 40.2485 37.1879 40.6 36.498C40.9997 35.7136 40.9997 34.6869 40.9997 32.6333V18.7C40.9997 16.6465 40.9997 15.6197 40.6 14.8354C40.2485 14.1454 39.6876 13.5845 38.9976 13.233C38.2133 12.8333 37.1865 12.8333 35.133 12.8333H10.1997C8.14615 12.8333 7.11939 12.8333 6.33504 13.233C5.64512 13.5845 5.08419 14.1454 4.73265 14.8354C4.33301 15.6197 4.33301 16.6465 4.33301 18.7V32.6333C4.33301 34.6869 4.33301 35.7136 4.73265 36.498C5.08419 37.1879 5.64512 37.7488 6.33504 38.1004C7.11939 38.5 8.14615 38.5 10.1997 38.5Z" stroke="url(#paint0_linear_72_675)" stroke-width="3" stroke-linecap="round" stroke-linejoin="round"/>
<defs>
<linearGradient id="paint0_linear_72_675" x1="4.33301" y1="21.9665" x2="40.3263" y2="21.9665" gradientUnits="userSpaceOnUse">
<stop stop-color="#0CEBEB"/>
<stop offset="0.522565" stop-color="#24F4C0" stop-opacity="0.71"/>
<stop offset="1" stop-color="#29FFC6"/>
</linearGradient>
</defs>
</svg>
