<svg width="49" height="49" viewBox="0 0 49 49" fill="none" xmlns="http://www.w3.org/2000/svg">
<g clip-path="url(#clip0_68_564)">
<mask id="mask0_68_564" style="mask-type:luminance" maskUnits="userSpaceOnUse" x="0" y="0" width="49" height="49">
<path d="M48.5 0.5H0.5V48.5H48.5V0.5Z" fill="white"/>
</mask>
<g mask="url(#mask0_68_564)">
<path fill-rule="evenodd" clip-rule="evenodd" d="M12.5 24.5C19.1274 24.5 24.5 19.1274 24.5 12.5C24.5 19.1274 29.8726 24.5 36.5 24.5C29.8726 24.5 24.5 29.8726 24.5 36.5C24.5 29.8726 19.1274 24.5 12.5 24.5ZM12.5 24.5C5.87259 24.5 0.5 29.8726 0.5 36.5C0.5 43.1274 5.87259 48.5 12.5 48.5C19.1274 48.5 24.5 43.1274 24.5 36.5C24.5 43.1274 29.8726 48.5 36.5 48.5C43.1274 48.5 48.5 43.1274 48.5 36.5C48.5 29.8726 43.1274 24.5 36.5 24.5C43.1274 24.5 48.5 19.1274 48.5 12.5C48.5 5.87259 43.1274 0.5 36.5 0.5C29.8726 0.5 24.5 5.87259 24.5 12.5C24.5 5.87259 19.1274 0.5 12.5 0.5C5.87259 0.5 0.5 5.87259 0.5 12.5C0.5 19.1274 5.87259 24.5 12.5 24.5Z" fill="url(#paint0_linear_68_564)"/>
<path d="M24.5 36.5C24.5 29.8726 29.8726 24.5 36.5 24.5C43.1274 24.5 48.5 29.8726 48.5 36.5C48.5 43.1274 43.1274 48.5 36.5 48.5C29.8726 48.5 24.5 43.1274 24.5 36.5Z" fill="#EAECF0"/>
<path d="M0.5 36.5C0.5 29.8726 5.87264 24.5 12.5 24.5C19.1274 24.5 24.5 29.8726 24.5 36.5C24.5 43.1274 19.1274 48.5 12.5 48.5C5.87264 48.5 0.5 43.1274 0.5 36.5Z" fill="#EAECF0"/>
</g>
</g>
<defs>
<linearGradient id="paint0_linear_68_564" x1="0.5" y1="24.4513" x2="47.6185" y2="24.4513" gradientUnits="userSpaceOnUse">
<stop stop-color="#0CEBEB"/>
<stop offset="0.522565" stop-color="#24F4C0" stop-opacity="0.71"/>
<stop offset="1" stop-color="#29FFC6"/>
</linearGradient>
<clipPath id="clip0_68_564">
<rect width="48" height="48" fill="white" transform="translate(0.5 0.5)"/>
</clipPath>
</defs>
</svg>
