<svg width="48" height="49" viewBox="0 0 48 49" fill="none" xmlns="http://www.w3.org/2000/svg">
<g clip-path="url(#clip0_68_554)">
<mask id="mask0_68_554" style="mask-type:luminance" maskUnits="userSpaceOnUse" x="0" y="0" width="48" height="49">
<path d="M48 0.5H0V48.5H48V0.5Z" fill="white"/>
</mask>
<g mask="url(#mask0_68_554)">
<path fill-rule="evenodd" clip-rule="evenodd" d="M12 24.5C18.6274 24.5 24 19.1274 24 12.5C24 19.1274 29.3726 24.5 36 24.5C29.3726 24.5 24 29.8726 24 36.5C24 29.8726 18.6274 24.5 12 24.5ZM12 24.5C5.37259 24.5 0 29.8726 0 36.5C0 43.1274 5.37259 48.5 12 48.5C18.6274 48.5 24 43.1274 24 36.5C24 43.1274 29.3726 48.5 36 48.5C42.6274 48.5 48 43.1274 48 36.5C48 29.8726 42.6274 24.5 36 24.5C42.6274 24.5 48 19.1274 48 12.5C48 5.87259 42.6274 0.5 36 0.5C29.3726 0.5 24 5.87259 24 12.5C24 5.87259 18.6274 0.5 12 0.5C5.37259 0.5 0 5.87259 0 12.5C0 19.1274 5.37259 24.5 12 24.5Z" fill="url(#paint0_linear_68_554)"/>
<path d="M24 36.5C24 29.8726 29.3726 24.5 36 24.5C42.6274 24.5 48 29.8726 48 36.5C48 43.1274 42.6274 48.5 36 48.5C29.3726 48.5 24 43.1274 24 36.5Z" fill="#EAECF0"/>
<path d="M0 36.5C0 29.8726 5.37264 24.5 12 24.5C18.6274 24.5 24 29.8726 24 36.5C24 43.1274 18.6274 48.5 12 48.5C5.37264 48.5 0 43.1274 0 36.5Z" fill="#EAECF0"/>
<path d="M24 12.5C24 5.87264 29.3726 0.5 36 0.5C42.6274 0.5 48 5.87264 48 12.5C48 19.1274 42.6274 24.5 36 24.5C29.3726 24.5 24 19.1274 24 12.5Z" fill="#EAECF0"/>
</g>
</g>
<defs>
<linearGradient id="paint0_linear_68_554" x1="0" y1="24.4513" x2="47.1185" y2="24.4513" gradientUnits="userSpaceOnUse">
<stop stop-color="#0CEBEB"/>
<stop offset="0.522565" stop-color="#24F4C0" stop-opacity="0.71"/>
<stop offset="1" stop-color="#29FFC6"/>
</linearGradient>
<clipPath id="clip0_68_554">
<rect width="48" height="48" fill="white" transform="translate(0 0.5)"/>
</clipPath>
</defs>
</svg>
