<svg width="56" height="57" viewBox="0 0 56 57" fill="none" xmlns="http://www.w3.org/2000/svg">
<mask id="path-1-outside-1_111_175" maskUnits="userSpaceOnUse" x="2" y="1" width="50" height="55" fill="black">
<rect fill="white" x="2" y="1" width="50" height="55"/>
<path fill-rule="evenodd" clip-rule="evenodd" d="M21.7264 3.1888C20.9631 3.45844 20.4369 3.89963 19.8803 4.73637C19.4825 5.33443 19.0539 6.56483 19.198 6.69453C19.2228 6.71668 25.9121 6.75397 34.0633 6.77724L48.8836 6.81977L48.8513 6.31879C48.8086 5.65984 48.2892 4.58363 47.7687 4.07564C47.5397 3.85221 47.0817 3.52657 46.7508 3.35201L46.1493 3.03461L34.2274 3.00945C22.9025 2.98552 22.2765 2.99442 21.7264 3.1888ZM30.7164 4.13676C30.2996 4.56103 30.2411 4.94133 30.5248 5.38208C30.8873 5.94518 31.1108 5.98481 33.9211 5.98459C36.7924 5.98447 37.1401 5.91567 37.4317 5.29057C37.6271 4.87164 37.4957 4.25321 37.1533 3.9789C36.8942 3.77149 36.7034 3.75825 33.9829 3.75825H31.0883L30.7164 4.13676ZM19.2613 9.06492C19.2211 9.10567 19.1883 12.5405 19.1883 16.6977V24.2563L19.7078 24.1659C21.0013 23.9411 22.0674 24.1941 22.8776 24.9183C23.0891 25.1072 23.2986 25.2203 23.3435 25.1697C23.3882 25.119 23.6841 24.4764 24.0009 23.7416C25.4216 20.4473 25.8939 19.7275 26.9935 19.1799C27.4785 18.9383 27.7284 18.8914 28.5752 18.8834C29.4501 18.8749 29.6573 18.9117 30.1677 19.1659C31.6222 19.8902 32.5493 21.761 32.2226 23.3117C32.1589 23.6142 31.3119 25.7134 30.3403 27.9765C28.6393 31.9387 27.4891 34.7002 27.5341 34.714C27.5459 34.7177 27.9246 34.7328 28.3758 34.7477C29.4139 34.7818 30.1769 35.1097 30.7874 35.7839C31.3163 36.3679 31.7639 37.2892 31.7653 37.7968L31.7664 38.1586H40.3524H48.9383V23.5747V8.99067H34.1363C25.995 8.99067 19.3013 9.02407 19.2613 9.06492ZM27.8836 21.0528C27.7032 21.1372 27.4731 21.3009 27.3726 21.4163C27.1844 21.6325 26.696 22.6651 26.0886 24.1313C25.8984 24.5905 25.3082 25.9181 24.7773 27.0815C23.919 28.9618 23.7846 29.1936 23.5674 29.1682C23.0903 29.1127 22.7071 28.6748 22.4719 27.9164C22.3484 27.5185 22.1536 27.0794 22.039 26.9408C21.7733 26.6196 20.981 26.2514 20.5555 26.2514C19.723 26.2514 18.7497 27.081 18.5038 27.9999C18.4343 28.2602 18.3443 28.4731 18.3038 28.4731C18.2633 28.4731 18.0438 28.2414 17.8158 27.9582C17.3331 27.3586 16.7051 27.0317 16.0291 27.0283C14.8753 27.0224 14.1521 27.5749 13.7145 28.7965C13.5809 29.1697 13.46 29.475 13.446 29.475C13.432 29.475 13.2942 29.2808 13.1398 29.0432C12.4412 27.9688 10.7056 27.8245 9.88761 28.7729C9.69511 28.996 9.40242 29.4833 9.23716 29.8557C9.07189 30.228 8.78533 30.8583 8.60027 31.2563C7.91241 32.7353 5.03738 39.0322 4.55919 40.1069C4.11469 41.1057 4.05847 41.3259 4.01155 42.2487C3.9515 43.4286 4.1195 44.1218 4.65872 44.9195C5.06724 45.5239 5.51338 45.8154 8.57894 47.4817C10.9611 48.7764 11.5194 49.0835 12.6805 49.738C13.8046 50.3716 15.1653 50.6068 16.3055 50.3648C17.8313 50.041 18.9189 49.2022 20.0069 47.5102C20.9153 46.0973 21.7514 45.0468 22.7604 44.0503C23.9567 42.8688 24.534 42.392 25.865 41.4857C27.0153 40.7024 26.9468 40.7442 28.3919 39.9387C29.5623 39.2862 29.9071 38.955 29.9071 38.4828C29.9071 37.4132 28.9084 36.5875 27.8958 36.8199C27.433 36.9261 25.5912 37.9097 24.3518 38.7126C23.853 39.0357 23.4189 39.2734 23.387 39.241C23.3204 39.1732 23.7681 38.0688 25.2019 34.7631C25.7597 33.4773 26.8448 30.9474 27.6133 29.1411C28.3818 27.3348 29.2861 25.2152 29.6229 24.4309C30.0125 23.5236 30.2352 22.8512 30.2352 22.5825C30.2352 22.1163 29.917 21.5554 29.4547 21.2069C29.0869 20.9297 28.3099 20.8535 27.8836 21.0528ZM30.9162 40.8175C30.7193 40.989 30.0302 41.4214 29.3849 41.7782C26.0892 43.601 23.5913 45.8408 21.7883 48.5899C21.2632 49.3904 20.56 50.3393 20.2256 50.6983C19.7886 51.1674 19.6328 51.4137 19.6716 51.5739C19.7014 51.6965 19.9753 52.0817 20.2802 52.43C20.9405 53.184 21.7415 53.6082 22.7186 53.7214C23.093 53.7647 28.518 53.7752 34.7743 53.7446L46.1493 53.6889L46.6786 53.4215C47.769 52.8705 48.5993 51.749 48.8288 50.5167C48.8911 50.1825 48.9383 47.8952 48.9383 45.2128V40.4965L40.1063 40.5011L31.2743 40.5055L30.9162 40.8175ZM32.6774 43.1611C31.0223 43.7675 29.9574 45.1552 29.8303 46.8712C29.6368 49.4844 31.4752 51.518 34.0312 51.518C36.1216 51.518 37.8623 49.8996 38.1806 47.6604C38.3553 46.4317 37.5503 44.5734 36.5027 43.7866C35.4558 43.0004 33.8378 42.7358 32.6774 43.1611ZM33.1209 45.3853C32.2674 45.7798 31.7524 46.853 31.9885 47.7454C32.0551 47.9971 32.2922 48.4024 32.5153 48.6459C33.7794 50.0253 35.9919 49.1544 35.966 47.2878C35.9529 46.3437 35.5322 45.701 34.6942 45.3446C34.1609 45.1178 33.6724 45.1304 33.1209 45.3853Z"/>
</mask>
<path fill-rule="evenodd" clip-rule="evenodd" d="M21.7264 3.1888C20.9631 3.45844 20.4369 3.89963 19.8803 4.73637C19.4825 5.33443 19.0539 6.56483 19.198 6.69453C19.2228 6.71668 25.9121 6.75397 34.0633 6.77724L48.8836 6.81977L48.8513 6.31879C48.8086 5.65984 48.2892 4.58363 47.7687 4.07564C47.5397 3.85221 47.0817 3.52657 46.7508 3.35201L46.1493 3.03461L34.2274 3.00945C22.9025 2.98552 22.2765 2.99442 21.7264 3.1888ZM30.7164 4.13676C30.2996 4.56103 30.2411 4.94133 30.5248 5.38208C30.8873 5.94518 31.1108 5.98481 33.9211 5.98459C36.7924 5.98447 37.1401 5.91567 37.4317 5.29057C37.6271 4.87164 37.4957 4.25321 37.1533 3.9789C36.8942 3.77149 36.7034 3.75825 33.9829 3.75825H31.0883L30.7164 4.13676ZM19.2613 9.06492C19.2211 9.10567 19.1883 12.5405 19.1883 16.6977V24.2563L19.7078 24.1659C21.0013 23.9411 22.0674 24.1941 22.8776 24.9183C23.0891 25.1072 23.2986 25.2203 23.3435 25.1697C23.3882 25.119 23.6841 24.4764 24.0009 23.7416C25.4216 20.4473 25.8939 19.7275 26.9935 19.1799C27.4785 18.9383 27.7284 18.8914 28.5752 18.8834C29.4501 18.8749 29.6573 18.9117 30.1677 19.1659C31.6222 19.8902 32.5493 21.761 32.2226 23.3117C32.1589 23.6142 31.3119 25.7134 30.3403 27.9765C28.6393 31.9387 27.4891 34.7002 27.5341 34.714C27.5459 34.7177 27.9246 34.7328 28.3758 34.7477C29.4139 34.7818 30.1769 35.1097 30.7874 35.7839C31.3163 36.3679 31.7639 37.2892 31.7653 37.7968L31.7664 38.1586H40.3524H48.9383V23.5747V8.99067H34.1363C25.995 8.99067 19.3013 9.02407 19.2613 9.06492ZM27.8836 21.0528C27.7032 21.1372 27.4731 21.3009 27.3726 21.4163C27.1844 21.6325 26.696 22.6651 26.0886 24.1313C25.8984 24.5905 25.3082 25.9181 24.7773 27.0815C23.919 28.9618 23.7846 29.1936 23.5674 29.1682C23.0903 29.1127 22.7071 28.6748 22.4719 27.9164C22.3484 27.5185 22.1536 27.0794 22.039 26.9408C21.7733 26.6196 20.981 26.2514 20.5555 26.2514C19.723 26.2514 18.7497 27.081 18.5038 27.9999C18.4343 28.2602 18.3443 28.4731 18.3038 28.4731C18.2633 28.4731 18.0438 28.2414 17.8158 27.9582C17.3331 27.3586 16.7051 27.0317 16.0291 27.0283C14.8753 27.0224 14.1521 27.5749 13.7145 28.7965C13.5809 29.1697 13.46 29.475 13.446 29.475C13.432 29.475 13.2942 29.2808 13.1398 29.0432C12.4412 27.9688 10.7056 27.8245 9.88761 28.7729C9.69511 28.996 9.40242 29.4833 9.23716 29.8557C9.07189 30.228 8.78533 30.8583 8.60027 31.2563C7.91241 32.7353 5.03738 39.0322 4.55919 40.1069C4.11469 41.1057 4.05847 41.3259 4.01155 42.2487C3.9515 43.4286 4.1195 44.1218 4.65872 44.9195C5.06724 45.5239 5.51338 45.8154 8.57894 47.4817C10.9611 48.7764 11.5194 49.0835 12.6805 49.738C13.8046 50.3716 15.1653 50.6068 16.3055 50.3648C17.8313 50.041 18.9189 49.2022 20.0069 47.5102C20.9153 46.0973 21.7514 45.0468 22.7604 44.0503C23.9567 42.8688 24.534 42.392 25.865 41.4857C27.0153 40.7024 26.9468 40.7442 28.3919 39.9387C29.5623 39.2862 29.9071 38.955 29.9071 38.4828C29.9071 37.4132 28.9084 36.5875 27.8958 36.8199C27.433 36.9261 25.5912 37.9097 24.3518 38.7126C23.853 39.0357 23.4189 39.2734 23.387 39.241C23.3204 39.1732 23.7681 38.0688 25.2019 34.7631C25.7597 33.4773 26.8448 30.9474 27.6133 29.1411C28.3818 27.3348 29.2861 25.2152 29.6229 24.4309C30.0125 23.5236 30.2352 22.8512 30.2352 22.5825C30.2352 22.1163 29.917 21.5554 29.4547 21.2069C29.0869 20.9297 28.3099 20.8535 27.8836 21.0528ZM30.9162 40.8175C30.7193 40.989 30.0302 41.4214 29.3849 41.7782C26.0892 43.601 23.5913 45.8408 21.7883 48.5899C21.2632 49.3904 20.56 50.3393 20.2256 50.6983C19.7886 51.1674 19.6328 51.4137 19.6716 51.5739C19.7014 51.6965 19.9753 52.0817 20.2802 52.43C20.9405 53.184 21.7415 53.6082 22.7186 53.7214C23.093 53.7647 28.518 53.7752 34.7743 53.7446L46.1493 53.6889L46.6786 53.4215C47.769 52.8705 48.5993 51.749 48.8288 50.5167C48.8911 50.1825 48.9383 47.8952 48.9383 45.2128V40.4965L40.1063 40.5011L31.2743 40.5055L30.9162 40.8175ZM32.6774 43.1611C31.0223 43.7675 29.9574 45.1552 29.8303 46.8712C29.6368 49.4844 31.4752 51.518 34.0312 51.518C36.1216 51.518 37.8623 49.8996 38.1806 47.6604C38.3553 46.4317 37.5503 44.5734 36.5027 43.7866C35.4558 43.0004 33.8378 42.7358 32.6774 43.1611ZM33.1209 45.3853C32.2674 45.7798 31.7524 46.853 31.9885 47.7454C32.0551 47.9971 32.2922 48.4024 32.5153 48.6459C33.7794 50.0253 35.9919 49.1544 35.966 47.2878C35.9529 46.3437 35.5322 45.701 34.6942 45.3446C34.1609 45.1178 33.6724 45.1304 33.1209 45.3853Z" stroke="url(#paint0_linear_111_175)" stroke-width="4" mask="url(#path-1-outside-1_111_175)"/>
<defs>
<linearGradient id="paint0_linear_111_175" x1="4" y1="28.3296" x2="48.113" y2="28.3296" gradientUnits="userSpaceOnUse">
<stop stop-color="#0CEBEB" stop-opacity="0.63"/>
<stop offset="0.522565" stop-color="#24F4C0" stop-opacity="0.71"/>
<stop offset="1" stop-color="#29FFC6"/>
</linearGradient>
</defs>
</svg>
