<svg width="26" height="38" viewBox="0 0 26 38" fill="none" xmlns="http://www.w3.org/2000/svg">
<path fill-rule="evenodd" clip-rule="evenodd" d="M11.7471 0.173959C9.47138 0.571574 7.5958 1.96641 6.60823 3.99546C6.12106 4.99644 6.00316 5.59728 5.95857 7.30676L5.91985 8.79093L5.6542 9.30743C5.40554 9.79098 5.39042 9.86034 5.41697 10.3934C5.4502 11.0623 5.6257 11.4656 6.08264 11.9235C6.43702 12.2786 6.68312 12.4129 7.2236 12.546L7.61618 12.6428L7.74911 13.1634C8.00371 14.1609 8.63893 15.1716 9.39348 15.7798L9.76643 16.0805V16.7841V17.4877L6.32641 18.7708C4.43436 19.4766 2.7057 20.1588 2.48486 20.2868C1.52233 20.8448 0.671314 21.8268 0.328966 22.7745C0.0111303 23.6545 -0.0175179 24.3332 0.00654346 30.4077L0.0291012 36.0968L0.254676 36.4474C0.402804 36.6776 0.594017 36.8559 0.811622 36.9665C1.14224 37.1347 1.14991 37.1351 4.08712 37.1351C6.94599 37.1351 7.03592 37.1308 7.1957 36.9874C7.41692 36.789 7.41692 36.3951 7.1957 36.1967C7.05457 36.0701 6.9317 36.0491 6.331 36.0491H5.63089V30.6159V25.1827L5.44629 25.005C5.19515 24.7631 4.86258 24.7686 4.65888 25.018C4.50436 25.2071 4.50301 25.2551 4.50301 30.6289V36.0491L2.94278 36.048C2.08469 36.0473 1.3318 36.0159 1.26977 35.9782C1.17096 35.918 1.15698 35.1607 1.15698 29.8797C1.15698 24.2448 1.166 23.8214 1.2945 23.4155C1.56873 22.5491 2.13597 21.8171 2.91007 21.3308C3.45003 20.9915 7.38985 19.477 7.49233 19.5692C7.52309 19.597 7.95431 20.4086 8.45058 21.3728C9.19813 22.8251 9.39672 23.1538 9.60838 23.2888C9.92584 23.4912 10.3257 23.498 10.6517 23.3066C10.7872 23.2271 10.9124 23.1621 10.9301 23.1621C10.9478 23.1621 11.0613 23.3007 11.1824 23.4702L11.4025 23.7782L10.5411 28.6648C9.80801 32.8223 9.69154 33.5891 9.76012 33.8047C9.81072 33.9638 10.1917 34.4286 10.7839 35.0536L11.727 36.0491H10.5313C9.43544 36.0491 9.31904 36.0616 9.13745 36.1992C8.86285 36.4071 8.86346 36.7775 9.13873 36.986L9.33814 37.137L17.1709 37.118L25.0038 37.0989L25.3164 36.8997C25.4883 36.7901 25.7057 36.5621 25.7996 36.3929C25.9665 36.0921 25.9708 36.0276 25.9942 33.4807C26.0075 32.0482 25.9971 30.7677 25.9712 30.6351C25.8811 30.1724 25.4256 29.9663 25.068 30.2263C24.9234 30.3315 24.9161 30.4426 24.88 33.1226C24.848 35.4941 24.8255 35.9199 24.7296 35.9783C24.6676 36.016 23.9147 36.0473 23.0566 36.048L21.4963 36.0491V30.6289C21.4963 25.2551 21.495 25.2071 21.3405 25.018C21.1368 24.7686 20.8042 24.7631 20.5531 25.005L20.3685 25.1827V30.6159V36.0491H17.3182H14.2678L15.2131 35.0536C15.8129 34.4219 16.1874 33.9655 16.2378 33.8047C16.3052 33.5902 16.1852 32.8014 15.4563 28.6658L14.5953 23.7803L14.8162 23.4712C14.9377 23.3012 15.0516 23.1621 15.0693 23.1621C15.0869 23.1621 15.2122 23.2271 15.3476 23.3066C15.6605 23.4903 16.0523 23.491 16.3633 23.3084C16.5644 23.1903 16.7702 22.8506 17.5517 21.3465C18.3516 19.8071 18.5188 19.5328 18.6385 19.563C18.7164 19.5826 19.6366 19.9174 20.6834 20.307C23.1856 21.2383 23.7446 21.5907 24.3515 22.6191C24.7914 23.3645 24.8222 23.5731 24.8611 26.0773L24.8968 28.3771L25.0865 28.5208C25.336 28.7097 25.5029 28.702 25.7593 28.4898L25.9703 28.3151L25.9934 26.5169C26.0198 24.4712 25.937 23.5128 25.6704 22.7745C25.3342 21.8439 24.5781 20.9518 23.6197 20.3554C23.3388 20.1806 21.9081 19.6065 19.705 18.7846L16.2329 17.4891L16.2334 16.76L16.2339 16.0308L16.7878 15.4717C17.5344 14.7184 17.9644 13.9152 18.2179 12.8004C18.2534 12.6444 18.3159 12.6022 18.5697 12.5631C19.2231 12.4626 19.9109 11.9741 20.2093 11.3987C20.3051 11.214 20.4201 10.8571 20.4649 10.6056C20.5374 10.1979 20.5278 10.0945 20.3766 9.65067C20.2834 9.37693 20.1503 9.09262 20.0809 9.01892C19.9742 8.9054 19.9479 8.6389 19.9092 7.28135C19.8721 5.98027 19.8339 5.57266 19.7065 5.12046C19.0892 2.92888 17.3911 1.16047 15.2169 0.444948C14.1181 0.0833162 12.8381 -0.0165942 11.7471 0.173959ZM14.4901 1.36658C16.2373 1.84782 17.6234 3.02032 18.326 4.61128C18.6637 5.37603 18.7894 6.06765 18.7894 7.1603V8.1059L18.5827 8.05833C18.2864 7.99013 18.2631 7.96943 18.2631 7.77496C18.2631 7.58933 17.8012 7.04091 16.8243 6.06664C16.3617 5.60524 16.2192 5.50613 15.9584 5.46421C15.6182 5.40955 15.633 5.40405 14.3531 6.06114C12.6959 6.9119 11.0589 7.30647 9.18422 7.30705C8.18944 7.30734 7.86844 7.41767 7.7137 7.81239C7.63542 8.01207 7.47677 8.10003 7.19112 8.10213C7.07412 8.103 7.05976 8.02076 7.06186 7.36106C7.06314 6.95287 7.0951 6.39026 7.13284 6.11073C7.46722 3.63426 9.41732 1.67109 11.9855 1.22548C12.58 1.12238 13.8664 1.19478 14.4901 1.36658ZM16.4773 7.28844L17.1352 7.98152L17.1343 10.2686C17.1336 12.043 17.1088 12.6448 17.0236 12.9533C16.6399 14.3413 15.4923 15.4455 14.049 15.8154C13.5067 15.9544 12.4209 15.9504 11.845 15.8075C10.5344 15.4822 9.45882 14.5344 8.9497 13.2564C8.76112 12.7829 8.75653 12.7275 8.72961 10.5828L8.70217 8.39274L9.40348 8.39144C11.2849 8.38789 13.522 7.80848 15.105 6.91479C15.4152 6.73966 15.7028 6.59617 15.7442 6.59588C15.7855 6.59551 16.1155 6.90719 16.4773 7.28844ZM7.58587 10.3113C7.58587 11.632 7.58384 11.6365 7.12886 11.3413C6.38243 10.857 6.31273 9.88669 6.99081 9.42044C7.13194 9.32336 7.4488 9.15959 7.56707 9.12259C7.57738 9.11941 7.58587 9.65429 7.58587 10.3113ZM18.8724 9.33921C19.1193 9.50855 19.3916 10.0231 19.3893 10.3161C19.3854 10.8176 18.957 11.3539 18.4653 11.4727L18.2631 11.5216V10.3113V9.10102L18.4653 9.14989C18.5765 9.17675 18.7597 9.26196 18.8724 9.33921ZM12.7423 16.9901C13.4917 17.0188 13.7545 16.9992 14.2461 16.8782C14.5738 16.7974 14.9011 16.7088 14.9735 16.6811C15.0915 16.6359 15.105 16.6848 15.105 17.1565V17.6824L14.0827 18.9019C13.5204 19.5726 13.0328 20.1213 12.9991 20.1213C12.9654 20.1213 12.4783 19.5756 11.9167 18.9087L10.8954 17.696L10.8949 17.1787L10.8943 16.6614L11.3643 16.8084C11.6875 16.9095 12.1176 16.9662 12.7423 16.9901ZM11.1782 19.7596C11.7274 20.4103 12.1505 20.9649 12.1183 20.9921C11.9432 21.1401 10.1993 22.2995 10.181 22.2801C10.0678 22.1604 8.5663 19.1531 8.60224 19.118C8.68254 19.0399 10.0246 18.5407 10.1046 18.5593C10.1459 18.5688 10.629 19.1091 11.1782 19.7596ZM16.6089 18.7911C17.0018 18.9357 17.351 19.0781 17.3849 19.1077C17.4307 19.1475 15.953 22.1385 15.8167 22.2817C15.8038 22.2953 15.3515 22.0033 14.8115 21.6329C13.9361 21.0323 13.8397 20.9455 13.9222 20.8312C14.1169 20.5617 15.8212 18.5368 15.857 18.5326C15.8776 18.5302 16.216 18.6464 16.6089 18.7911ZM13.6012 22.1356C13.87 22.3152 14.1009 22.47 14.1144 22.4797C14.1279 22.4894 14.0472 22.6305 13.9352 22.7934L13.7316 23.0897H12.9997H12.2678L12.0614 22.7894C11.8975 22.551 11.8761 22.4774 11.9574 22.4322C12.0137 22.4009 12.2628 22.2308 12.5109 22.0541C12.7591 21.8775 12.9959 21.75 13.0373 21.771C13.0786 21.7918 13.3324 21.9559 13.6012 22.1356ZM13.5559 24.3748C13.5789 24.4842 13.9386 26.5286 14.3552 28.9178C14.7718 31.307 15.1269 33.3106 15.1441 33.3703C15.174 33.4732 13.1232 35.7233 12.9997 35.7233C12.9693 35.7233 12.4679 35.2183 11.8856 34.6011C11.0997 33.7682 10.8354 33.4416 10.8604 33.3341C10.879 33.2545 11.233 31.2508 11.6473 28.8816C12.0616 26.5123 12.4196 24.4842 12.4429 24.3748C12.4842 24.181 12.4989 24.1757 12.9997 24.1757C13.5006 24.1757 13.5152 24.1809 13.5559 24.3748Z" fill="url(#paint0_linear_68_604)"/>
<defs>
<linearGradient id="paint0_linear_68_604" x1="0" y1="18.5705" x2="25.5225" y2="18.5705" gradientUnits="userSpaceOnUse">
<stop stop-color="#0CEBEB"/>
<stop offset="0.522565" stop-color="#24F4C0" stop-opacity="0.71"/>
<stop offset="1" stop-color="#29FFC6"/>
</linearGradient>
</defs>
</svg>
