<svg width="64" height="64" viewBox="0 0 64 64" fill="none" xmlns="http://www.w3.org/2000/svg">
<mask id="path-1-outside-1_111_159" maskUnits="userSpaceOnUse" x="9" y="6" width="46" height="53" fill="black">
<rect fill="white" x="9" y="6" width="46" height="53"/>
<path fill-rule="evenodd" clip-rule="evenodd" d="M19.1322 7.20145C18.1397 7.49145 17.3175 8.20418 16.8152 9.21047L16.4078 10.0266L16.3604 14.3394C16.3343 16.7116 16.3656 18.6523 16.4299 18.6523C16.4944 18.6523 16.8819 18.5159 17.2911 18.3491C18.0018 18.0593 18.0352 18.0213 18.0352 17.5043C18.0352 16.8315 18.4143 16.1784 19.1392 15.6021L19.6961 15.1592L32.4141 15.1213L45.1321 15.0834L45.6226 15.4086C45.8925 15.5874 46.3113 16.0108 46.5535 16.3495L46.9938 16.9651L47.0662 20.5533L47.1387 24.1414H47.791H48.4433V17.1553V10.1691L48.0689 9.38412C47.6349 8.47421 46.9919 7.79399 46.1434 7.34773L45.5442 7.0325L32.7155 7.00684C21.514 6.98445 19.7911 7.00912 19.1322 7.20145ZM28.1394 9.93503C27.4751 10.0559 27.2716 10.7085 27.7621 11.1451C27.9958 11.3531 28.5149 11.3807 32.1471 11.3789C36.5929 11.3766 36.9592 11.323 37.0292 10.6649C37.1127 9.87971 37.1367 9.88399 32.6018 9.88399C30.3016 9.88399 28.2935 9.90694 28.1394 9.93503ZM20.104 16.6888C19.836 16.867 19.5712 17.1811 19.5155 17.3868L19.4143 17.7608L21.3175 17.8361C23.3274 17.9156 24.2417 18.1033 26.0071 18.7985C29.717 20.2596 32.5972 23.5416 33.59 27.4392C33.8634 28.5129 33.8967 28.9516 33.837 30.6882C33.76 32.9257 33.5572 33.8416 32.7794 35.4634C31.2304 38.6934 28.1628 41.3255 24.809 42.302C23.3938 42.7142 21.5698 42.9229 20.3861 42.8081L19.3794 42.7106V44.8033C19.3794 46.3813 19.4327 46.9975 19.5959 47.3082C20.0747 48.2188 19.2653 48.1652 32.5448 48.1652H44.6309L45.1238 47.6805L45.6167 47.1957V43.4088V39.622L40.9148 39.5807L36.2131 39.5395L35.7688 39.1207L35.3247 38.702V31.7673V24.8328L35.6985 24.487C36.0696 24.1439 36.0964 24.1411 39.5524 24.0985C42.0098 24.0681 43.0911 24.1035 43.2321 24.2187C43.3421 24.3084 43.8346 25.0977 44.3265 25.9725C44.8185 26.8473 45.3202 27.6754 45.4414 27.8127C45.6369 28.0343 45.976 28.0622 48.4716 28.0622C51.5137 28.0622 51.949 28.1533 52.6598 28.9395C53.2775 29.6224 53.3145 29.9441 53.2697 34.2504L53.2269 38.3527L52.8107 38.7046L52.3944 39.0566L53.1731 39.0128L53.9517 38.9692L53.991 32.7672C54.019 28.3589 53.983 26.4769 53.8665 26.2601C53.5651 25.6998 53.1466 25.6385 49.6214 25.6385C46.3032 25.6385 46.2419 25.633 45.9386 25.3157C45.6422 25.0051 45.6287 24.8439 45.5872 21.1127L45.5442 17.2326L45.1424 16.8375L44.7404 16.4424L32.6659 16.4036L20.5914 16.3649L20.104 16.6888ZM18.7166 19.4336C13.2097 20.6124 9.33905 26.1188 10.0941 31.7002C11.0424 38.7085 18.0382 43.0648 24.7738 40.8409C28.3683 39.6541 31.2008 36.6318 32.1387 32.9823C32.537 31.4325 32.5427 29.1062 32.1516 27.6151C30.8597 22.6899 26.2643 19.196 21.1279 19.2339C20.2858 19.2401 19.2008 19.3301 18.7166 19.4336ZM18.9326 21.2717C15.5995 22.0251 12.7634 24.8785 12.0479 28.1981C11.4437 31.001 12.0699 33.6968 13.8764 36.0692C17.2885 40.5506 24.5636 40.7093 28.2947 36.3836C29.2563 35.2688 30.1636 33.4812 30.4559 32.1256C31.4033 27.7316 28.6277 23.0165 24.2354 21.5583C23.2957 21.2463 22.7596 21.1653 21.4088 21.131C20.4097 21.1056 19.4175 21.1621 18.9326 21.2717ZM20.1851 22.5115C19.1157 22.6333 17.7912 23.0523 16.9708 23.5285C16.4011 23.8591 16.3741 23.7913 17.5848 25.0682C17.9937 25.4995 19.2373 26.8789 20.3483 28.1335C22.7566 30.8534 23.1375 31.2619 23.1944 31.1856C23.3438 30.9846 25.9813 27.9644 26.1086 27.8484C26.1945 27.7699 26.6046 27.3153 27.0198 26.8379C27.7539 25.9939 27.7683 25.9605 27.5418 25.6261C26.0274 23.3903 23.1529 22.1735 20.1851 22.5115ZM15.0372 25.3177C14.3093 26.145 13.6275 27.4979 13.4348 28.4969C13.1019 30.2235 13.3478 32.5192 13.9994 33.7652C14.2457 34.2361 14.3066 34.2666 15.0804 34.307L15.9004 34.3498V29.4951C15.9004 26.6268 15.8458 24.6404 15.7668 24.6404C15.6933 24.6404 15.3649 24.9451 15.0372 25.3177ZM36.6293 26.7078V27.9197H40.1808C42.1341 27.9197 43.7322 27.8854 43.7322 27.8437C43.7322 27.7058 42.9758 26.2879 42.6891 25.888L42.4079 25.4959H39.5186H36.6293V26.7078ZM17.35 30.6825V34.3355H17.778C18.0134 34.3355 18.3722 34.4099 18.5753 34.501C18.8777 34.6365 18.9445 34.7656 18.9445 35.2139V35.7612L17.8936 35.7856C17.3155 35.799 16.6034 35.815 16.3112 35.8213C15.5311 35.8378 15.5108 35.9733 16.2131 36.4767C19.6671 38.9525 23.9924 38.6969 26.8451 35.8482C28.5833 34.1124 29.3381 32.1567 29.1894 29.7731C29.1089 28.4835 28.8126 27.241 28.602 27.3103C28.4821 27.3498 25.2674 30.8946 25.2071 31.0537C25.1835 31.1163 25.4113 31.225 25.7136 31.2952C26.0335 31.3697 26.2818 31.5198 26.3083 31.6548C26.3494 31.8648 25.4413 32.6647 23.9264 33.7529C23.4011 34.1303 23.5714 34.2012 21.4236 32.7119L20.2062 31.8677L20.5901 31.5927C20.8011 31.4414 20.9739 31.2528 20.9739 31.1735C20.9739 31.0269 17.9989 27.5591 17.5794 27.2166C17.3711 27.0465 17.35 27.3665 17.35 30.6825ZM36.6293 33.7478C36.6293 37.3692 36.6621 38.0343 36.8478 38.1859C37.1251 38.4121 51.3776 38.243 51.6686 38.0099C51.8053 37.9006 51.8498 36.9426 51.8498 34.1151V30.3652L51.4745 29.9267L51.0992 29.488H43.8643H36.6293V33.7478ZM44.8919 32.1103C44.8919 33.6377 44.8794 33.6226 46.1359 33.6226H46.9213V34.6207V35.6187H47.7185H48.5158V34.2692C48.5158 33.0424 48.488 32.9052 48.2099 32.7588C48.0418 32.6702 47.3327 32.1868 46.6341 31.6845C45.9357 31.1822 45.2579 30.7711 45.128 30.7711C44.9265 30.7711 44.8919 30.9678 44.8919 32.1103ZM47.0654 43.2742C47.0649 45.5292 47.0023 47.1739 46.9037 47.5232C46.6938 48.267 45.7202 49.2247 44.9639 49.4311C44.5606 49.5413 40.7281 49.5887 32.3531 49.587C20.9504 49.5848 20.2913 49.5709 19.7418 49.3206C19.0653 49.0125 18.4569 48.4139 18.2054 47.8088C18.099 47.5524 18.0018 46.3788 17.9631 44.8803L17.8988 42.3796L17.3707 42.2169C17.0802 42.1273 16.7285 42.0109 16.5889 41.9578C16.3498 41.8669 16.3353 42.2203 16.3353 48.1731C16.3353 53.739 16.3647 54.5764 16.5839 55.2606C16.9009 56.2498 17.7734 57.2314 18.7216 57.6655L19.4519 58H32.4255H45.3992L46.124 57.6631C47.041 57.2367 47.5236 56.7288 48.0364 55.6504L48.4433 54.7949V47.2385V39.682L47.7548 39.6386L47.0662 39.5951L47.0654 43.2742ZM29.1634 53.5836C28.9473 53.8186 28.9296 53.9319 29.0635 54.2212C29.1533 54.4148 29.38 54.611 29.5674 54.6573C29.7548 54.7035 31.1619 54.7214 32.6944 54.6968C35.6565 54.6495 35.752 54.6257 35.7574 53.9324C35.7619 53.3374 35.5537 53.2979 32.419 53.2979C29.6084 53.2979 29.4104 53.3153 29.1634 53.5836Z"/>
</mask>
<path fill-rule="evenodd" clip-rule="evenodd" d="M19.1322 7.20145C18.1397 7.49145 17.3175 8.20418 16.8152 9.21047L16.4078 10.0266L16.3604 14.3394C16.3343 16.7116 16.3656 18.6523 16.4299 18.6523C16.4944 18.6523 16.8819 18.5159 17.2911 18.3491C18.0018 18.0593 18.0352 18.0213 18.0352 17.5043C18.0352 16.8315 18.4143 16.1784 19.1392 15.6021L19.6961 15.1592L32.4141 15.1213L45.1321 15.0834L45.6226 15.4086C45.8925 15.5874 46.3113 16.0108 46.5535 16.3495L46.9938 16.9651L47.0662 20.5533L47.1387 24.1414H47.791H48.4433V17.1553V10.1691L48.0689 9.38412C47.6349 8.47421 46.9919 7.79399 46.1434 7.34773L45.5442 7.0325L32.7155 7.00684C21.514 6.98445 19.7911 7.00912 19.1322 7.20145ZM28.1394 9.93503C27.4751 10.0559 27.2716 10.7085 27.7621 11.1451C27.9958 11.3531 28.5149 11.3807 32.1471 11.3789C36.5929 11.3766 36.9592 11.323 37.0292 10.6649C37.1127 9.87971 37.1367 9.88399 32.6018 9.88399C30.3016 9.88399 28.2935 9.90694 28.1394 9.93503ZM20.104 16.6888C19.836 16.867 19.5712 17.1811 19.5155 17.3868L19.4143 17.7608L21.3175 17.8361C23.3274 17.9156 24.2417 18.1033 26.0071 18.7985C29.717 20.2596 32.5972 23.5416 33.59 27.4392C33.8634 28.5129 33.8967 28.9516 33.837 30.6882C33.76 32.9257 33.5572 33.8416 32.7794 35.4634C31.2304 38.6934 28.1628 41.3255 24.809 42.302C23.3938 42.7142 21.5698 42.9229 20.3861 42.8081L19.3794 42.7106V44.8033C19.3794 46.3813 19.4327 46.9975 19.5959 47.3082C20.0747 48.2188 19.2653 48.1652 32.5448 48.1652H44.6309L45.1238 47.6805L45.6167 47.1957V43.4088V39.622L40.9148 39.5807L36.2131 39.5395L35.7688 39.1207L35.3247 38.702V31.7673V24.8328L35.6985 24.487C36.0696 24.1439 36.0964 24.1411 39.5524 24.0985C42.0098 24.0681 43.0911 24.1035 43.2321 24.2187C43.3421 24.3084 43.8346 25.0977 44.3265 25.9725C44.8185 26.8473 45.3202 27.6754 45.4414 27.8127C45.6369 28.0343 45.976 28.0622 48.4716 28.0622C51.5137 28.0622 51.949 28.1533 52.6598 28.9395C53.2775 29.6224 53.3145 29.9441 53.2697 34.2504L53.2269 38.3527L52.8107 38.7046L52.3944 39.0566L53.1731 39.0128L53.9517 38.9692L53.991 32.7672C54.019 28.3589 53.983 26.4769 53.8665 26.2601C53.5651 25.6998 53.1466 25.6385 49.6214 25.6385C46.3032 25.6385 46.2419 25.633 45.9386 25.3157C45.6422 25.0051 45.6287 24.8439 45.5872 21.1127L45.5442 17.2326L45.1424 16.8375L44.7404 16.4424L32.6659 16.4036L20.5914 16.3649L20.104 16.6888ZM18.7166 19.4336C13.2097 20.6124 9.33905 26.1188 10.0941 31.7002C11.0424 38.7085 18.0382 43.0648 24.7738 40.8409C28.3683 39.6541 31.2008 36.6318 32.1387 32.9823C32.537 31.4325 32.5427 29.1062 32.1516 27.6151C30.8597 22.6899 26.2643 19.196 21.1279 19.2339C20.2858 19.2401 19.2008 19.3301 18.7166 19.4336ZM18.9326 21.2717C15.5995 22.0251 12.7634 24.8785 12.0479 28.1981C11.4437 31.001 12.0699 33.6968 13.8764 36.0692C17.2885 40.5506 24.5636 40.7093 28.2947 36.3836C29.2563 35.2688 30.1636 33.4812 30.4559 32.1256C31.4033 27.7316 28.6277 23.0165 24.2354 21.5583C23.2957 21.2463 22.7596 21.1653 21.4088 21.131C20.4097 21.1056 19.4175 21.1621 18.9326 21.2717ZM20.1851 22.5115C19.1157 22.6333 17.7912 23.0523 16.9708 23.5285C16.4011 23.8591 16.3741 23.7913 17.5848 25.0682C17.9937 25.4995 19.2373 26.8789 20.3483 28.1335C22.7566 30.8534 23.1375 31.2619 23.1944 31.1856C23.3438 30.9846 25.9813 27.9644 26.1086 27.8484C26.1945 27.7699 26.6046 27.3153 27.0198 26.8379C27.7539 25.9939 27.7683 25.9605 27.5418 25.6261C26.0274 23.3903 23.1529 22.1735 20.1851 22.5115ZM15.0372 25.3177C14.3093 26.145 13.6275 27.4979 13.4348 28.4969C13.1019 30.2235 13.3478 32.5192 13.9994 33.7652C14.2457 34.2361 14.3066 34.2666 15.0804 34.307L15.9004 34.3498V29.4951C15.9004 26.6268 15.8458 24.6404 15.7668 24.6404C15.6933 24.6404 15.3649 24.9451 15.0372 25.3177ZM36.6293 26.7078V27.9197H40.1808C42.1341 27.9197 43.7322 27.8854 43.7322 27.8437C43.7322 27.7058 42.9758 26.2879 42.6891 25.888L42.4079 25.4959H39.5186H36.6293V26.7078ZM17.35 30.6825V34.3355H17.778C18.0134 34.3355 18.3722 34.4099 18.5753 34.501C18.8777 34.6365 18.9445 34.7656 18.9445 35.2139V35.7612L17.8936 35.7856C17.3155 35.799 16.6034 35.815 16.3112 35.8213C15.5311 35.8378 15.5108 35.9733 16.2131 36.4767C19.6671 38.9525 23.9924 38.6969 26.8451 35.8482C28.5833 34.1124 29.3381 32.1567 29.1894 29.7731C29.1089 28.4835 28.8126 27.241 28.602 27.3103C28.4821 27.3498 25.2674 30.8946 25.2071 31.0537C25.1835 31.1163 25.4113 31.225 25.7136 31.2952C26.0335 31.3697 26.2818 31.5198 26.3083 31.6548C26.3494 31.8648 25.4413 32.6647 23.9264 33.7529C23.4011 34.1303 23.5714 34.2012 21.4236 32.7119L20.2062 31.8677L20.5901 31.5927C20.8011 31.4414 20.9739 31.2528 20.9739 31.1735C20.9739 31.0269 17.9989 27.5591 17.5794 27.2166C17.3711 27.0465 17.35 27.3665 17.35 30.6825ZM36.6293 33.7478C36.6293 37.3692 36.6621 38.0343 36.8478 38.1859C37.1251 38.4121 51.3776 38.243 51.6686 38.0099C51.8053 37.9006 51.8498 36.9426 51.8498 34.1151V30.3652L51.4745 29.9267L51.0992 29.488H43.8643H36.6293V33.7478ZM44.8919 32.1103C44.8919 33.6377 44.8794 33.6226 46.1359 33.6226H46.9213V34.6207V35.6187H47.7185H48.5158V34.2692C48.5158 33.0424 48.488 32.9052 48.2099 32.7588C48.0418 32.6702 47.3327 32.1868 46.6341 31.6845C45.9357 31.1822 45.2579 30.7711 45.128 30.7711C44.9265 30.7711 44.8919 30.9678 44.8919 32.1103ZM47.0654 43.2742C47.0649 45.5292 47.0023 47.1739 46.9037 47.5232C46.6938 48.267 45.7202 49.2247 44.9639 49.4311C44.5606 49.5413 40.7281 49.5887 32.3531 49.587C20.9504 49.5848 20.2913 49.5709 19.7418 49.3206C19.0653 49.0125 18.4569 48.4139 18.2054 47.8088C18.099 47.5524 18.0018 46.3788 17.9631 44.8803L17.8988 42.3796L17.3707 42.2169C17.0802 42.1273 16.7285 42.0109 16.5889 41.9578C16.3498 41.8669 16.3353 42.2203 16.3353 48.1731C16.3353 53.739 16.3647 54.5764 16.5839 55.2606C16.9009 56.2498 17.7734 57.2314 18.7216 57.6655L19.4519 58H32.4255H45.3992L46.124 57.6631C47.041 57.2367 47.5236 56.7288 48.0364 55.6504L48.4433 54.7949V47.2385V39.682L47.7548 39.6386L47.0662 39.5951L47.0654 43.2742ZM29.1634 53.5836C28.9473 53.8186 28.9296 53.9319 29.0635 54.2212C29.1533 54.4148 29.38 54.611 29.5674 54.6573C29.7548 54.7035 31.1619 54.7214 32.6944 54.6968C35.6565 54.6495 35.752 54.6257 35.7574 53.9324C35.7619 53.3374 35.5537 53.2979 32.419 53.2979C29.6084 53.2979 29.4104 53.3153 29.1634 53.5836Z" stroke="url(#paint0_linear_111_159)" stroke-width="2" mask="url(#path-1-outside-1_111_159)"/>
<defs>
<linearGradient id="paint0_linear_111_159" x1="10" y1="32.4483" x2="53.1919" y2="32.4483" gradientUnits="userSpaceOnUse">
<stop stop-color="#0CEBEB" stop-opacity="0.63"/>
<stop offset="0.522565" stop-color="#24F4C0" stop-opacity="0.71"/>
<stop offset="1" stop-color="#29FFC6"/>
</linearGradient>
</defs>
</svg>
