<svg width="65" height="64" viewBox="0 0 65 64" fill="none" xmlns="http://www.w3.org/2000/svg">
<path fill-rule="evenodd" clip-rule="evenodd" d="M30.1315 8.07789C26.416 8.58202 22.6523 10.0413 19.7595 12.0993C13.3486 16.6601 9.625 23.7648 9.625 31.4359C9.625 39.3496 13.7759 46.7795 20.6047 51.0889C26.5364 54.8321 33.8711 55.7601 40.5737 53.6154C46.7832 51.6284 52.165 46.8816 54.806 41.0624C54.9307 40.7874 55.135 40.3471 55.2598 40.0841C55.5794 39.4101 56.2131 37.3279 56.5134 35.9654C56.8368 34.498 56.9734 30.4283 56.7637 28.5094C56.4917 26.0201 55.8535 23.846 54.6875 21.4374C52.3055 16.5163 48.5707 12.713 43.7676 10.3173C39.7306 8.30377 34.6343 7.46677 30.1315 8.07789ZM34.7084 12.3333C34.6625 12.379 34.625 14.0946 34.625 16.1458V19.8749L34.9688 19.8726C36.286 19.864 40.5 18.918 40.5 18.6309C40.5 18.4958 39.2292 16.2618 38.6921 15.4525C37.8202 14.1391 36.3221 12.6161 35.6509 12.361C35.3057 12.2298 34.8259 12.2156 34.7084 12.3333ZM29.9737 13.1193C28.9212 14.0838 27.5662 15.8858 26.7626 17.3899C26.4119 18.0463 26.125 18.6184 26.125 18.6615C26.125 18.9085 29.7215 19.7203 31.0625 19.776L31.9375 19.8124L31.9706 16.0936L32.0037 12.3749H31.395C30.8256 12.3749 30.7335 12.4231 29.9737 13.1193ZM25.8125 12.9266C23.8728 13.6756 20.6363 15.5896 20.8164 15.8813C20.9084 16.0301 23.3434 17.6249 23.4788 17.6249C23.5469 17.6249 23.8847 17.097 24.2295 16.4519C24.7793 15.423 25.4959 14.3265 26.4772 13.0128C26.8199 12.5541 26.7881 12.55 25.8125 12.9266ZM40 12.7028C40 12.7456 40.2666 13.1534 40.5926 13.609C41.2786 14.5679 42.2674 16.1709 42.7025 17.0295C42.8685 17.357 43.0496 17.6249 43.1051 17.6249C43.2504 17.6249 45.4243 16.1793 45.6031 15.9636C45.7261 15.8155 45.6567 15.7036 45.2204 15.3464C44.3486 14.6325 43.0269 13.8753 41.5279 13.2309C40.0477 12.5946 40 12.5781 40 12.7028ZM47.375 18.2551C47.0656 18.4638 46.3344 18.9211 45.75 19.2715C45.1656 19.622 44.5632 19.9853 44.4115 20.0788L44.1354 20.2489L44.5667 21.4405C45.3353 23.5634 45.9823 26.4751 46.2444 28.9896C46.3119 29.6371 46.4224 30.2223 46.49 30.2899C46.6295 30.4294 53.1225 30.161 53.2846 30.0091C53.4191 29.8831 53.0575 27.5546 52.6847 26.1471C52.1245 24.0318 51.2692 22.1875 49.9883 20.3329C49.313 19.3554 48.1196 17.8745 48.0078 17.8754C47.9691 17.8758 47.6844 18.0466 47.375 18.2551ZM17.7436 18.7811C15.2981 21.7073 13.6245 25.6213 13.3075 29.1561L13.2206 30.1249H16.7254H20.2301L20.3119 29.2811C20.5586 26.737 21.1919 23.694 21.9251 21.529L22.3599 20.2458L22.0861 20.0731C21.9356 19.9781 21.1419 19.4729 20.3223 18.9501C19.5026 18.4275 18.734 17.9999 18.6143 17.9999C18.4946 17.9999 18.1028 18.3515 17.7436 18.7811ZM24.8864 21.3584C24.8278 21.4706 24.5226 22.3521 24.2084 23.3174C23.584 25.2353 23.0445 27.6851 22.9186 29.1743L22.8384 30.1249L25.7629 30.1254C27.3714 30.1256 29.4048 30.1625 30.2812 30.2071L31.875 30.2885V26.5364V22.7844L31.0312 22.6984C29.974 22.5905 27.5326 22.0104 26.0903 21.5243C25.103 21.1915 24.9823 21.1749 24.8864 21.3584ZM40.8125 21.4525C39.5389 21.9311 35.6941 22.7499 34.7202 22.7499C34.6659 22.7499 34.6362 24.4515 34.6544 26.5311L34.6875 30.3124L39.1645 30.3453L43.6414 30.378L43.6135 29.422C43.5825 28.3584 43.2611 26.4283 42.8773 24.9999C42.4156 23.2819 41.6819 21.3143 41.4933 21.2889C41.3939 21.2755 41.0875 21.3491 40.8125 21.4525ZM36.9375 32.3705L34.6875 32.4374L34.6544 36.2126L34.6214 39.9879L35.0294 40.0511C35.2539 40.0859 35.775 40.1499 36.1875 40.1933C37.4451 40.3255 39.2537 40.7335 40.4121 41.1464C41.0644 41.3789 41.5569 41.4924 41.6227 41.4253C41.684 41.3633 42.0252 40.4405 42.3812 39.3749C43.0933 37.2435 43.6162 34.6218 43.6216 33.1561L43.625 32.2499L41.4062 32.2768C40.186 32.2915 38.175 32.3338 36.9375 32.3705ZM46.3669 32.5311C46.2383 35.0208 45.5737 38.375 44.6905 40.9931C44.4482 41.7114 44.25 42.3744 44.25 42.4664C44.25 42.5585 44.4891 42.739 44.7812 42.8675C45.0734 42.996 45.9313 43.4974 46.6875 43.9816L48.0625 44.8621L48.3408 44.5248C50.6714 41.6999 52.0835 39.061 52.8256 36.1448C53.0999 35.0664 53.4509 32.7758 53.3543 32.6938C53.2784 32.6294 48.5809 32.3749 47.4676 32.3749C46.6811 32.3749 46.3727 32.4186 46.3669 32.5311ZM24.4688 32.5921L22.875 32.6324V33.0833C22.875 33.8533 23.372 36.6239 23.757 37.9999C24.1491 39.401 24.8001 41.2276 24.9635 41.3845C25.018 41.4368 25.5688 41.3121 26.1875 41.1075C27.4214 40.6994 30.0306 40.1256 30.6626 40.1235C30.8825 40.1228 31.2743 40.0871 31.5331 40.0444L32.0036 39.9666L31.9706 36.2645L31.9375 32.5624L29 32.5573C27.3844 32.5544 25.3453 32.5701 24.4688 32.5921ZM14.8431 32.7183L13.2487 32.7574L13.3214 33.4724C13.7136 37.3326 15.2619 40.968 17.8206 44.0373C18.4469 44.7885 18.5529 44.8673 18.7334 44.7158C18.9778 44.5106 20.518 43.5756 21.5625 42.9985C21.975 42.7705 22.3261 42.5749 22.3428 42.5638C22.3595 42.5525 22.1749 41.957 21.9325 41.2404C21.0915 38.7533 20.4726 35.9125 20.3074 33.7811L20.2178 32.6249L18.3276 32.652C17.288 32.667 15.72 32.6968 14.8431 32.7183ZM29.6325 43.0771C28.4818 43.2699 26.1239 43.9571 26.1268 44.099C26.13 44.2639 27.145 46.0534 27.7288 46.9235C28.506 48.0818 29.8215 49.5783 30.4375 50.0049C30.7125 50.1953 31.1415 50.3859 31.391 50.4283C31.7889 50.496 31.8538 50.4708 31.9205 50.2214C31.9624 50.0653 31.9974 48.3484 31.9982 46.4061L32 42.8749L31.3438 42.8876C30.9829 42.8946 30.2127 42.9799 29.6325 43.0771ZM34.707 43.6271C34.5883 44.7633 34.6061 50.3485 34.7287 50.4243C34.7859 50.4595 35.1375 50.4096 35.51 50.3133C36.0987 50.1611 36.3059 50.0136 37.091 49.1874C38.0435 48.1853 39.5046 46.1038 40.142 44.8413C40.4432 44.2445 40.4869 44.0685 40.3543 43.9844C39.8988 43.6956 37.0373 43.0515 35.6271 42.9205L34.789 42.8426L34.707 43.6271ZM22.1875 45.8258C20.5542 46.823 20.5861 46.737 21.584 47.4533C22.8438 48.3573 23.3213 48.6455 24.5281 49.2304C25.4444 49.6743 26.5376 50.1249 26.6984 50.1249C26.7215 50.1249 26.38 49.6156 25.9394 48.9931C25.4989 48.3708 24.7906 47.2458 24.3656 46.4931C23.9406 45.7406 23.5297 45.128 23.4526 45.1319C23.3756 45.1358 22.8062 45.448 22.1875 45.8258ZM42.7791 45.5311C42.6464 45.7546 42.3224 46.3311 42.059 46.8124C41.7956 47.2936 41.2199 48.2123 40.7795 48.8539C40.3391 49.4954 39.9986 50.0401 40.0229 50.0645C40.0791 50.1206 41.6694 49.4259 42.8269 48.8394C43.7537 48.3698 45.75 46.9389 45.75 46.7441C45.75 46.6346 43.2892 45.1249 43.1106 45.1249C43.061 45.1249 42.9119 45.3076 42.7791 45.5311Z" fill="url(#paint0_linear_111_199)"/>
<defs>
<linearGradient id="paint0_linear_111_199" x1="9.625" y1="31.2681" x2="55.9964" y2="31.2681" gradientUnits="userSpaceOnUse">
<stop stop-color="#0CEBEB" stop-opacity="0.63"/>
<stop offset="0.522565" stop-color="#24F4C0" stop-opacity="0.71"/>
<stop offset="1" stop-color="#29FFC6"/>
</linearGradient>
</defs>
</svg>
