<svg width="33" height="38" viewBox="0 0 33 38" fill="none" xmlns="http://www.w3.org/2000/svg">
<path fill-rule="evenodd" clip-rule="evenodd" d="M15.4336 0.350114C14.9452 0.589469 14.8129 0.712606 14.298 1.40699C13.5973 2.35174 13.3734 2.48855 12.5197 2.49338C11.6488 2.4983 11.1055 2.67596 10.583 3.12649C10.0166 3.61487 9.7501 4.23748 9.81295 4.92553C9.84755 5.30344 10.0276 5.73338 10.7355 7.12874L11.6153 8.86241L11.3201 9.09577C10.7419 9.55288 10.5958 10.4419 11.015 10.9531L11.1908 11.1673L11.015 11.3816C10.7382 11.7192 10.6941 12.2449 10.9043 12.7006L11.0818 13.0855L10.5867 13.3879C6.83245 15.6806 3.88099 20.0341 2.48654 25.3359C1.94148 27.408 1.61836 29.7708 1.6168 31.6955L1.61584 32.8401L1.28594 33.0015C1.10452 33.0902 0.793479 33.332 0.594842 33.5387C-0.448149 34.6239 -0.0727831 36.3136 1.35505 36.9599L1.74624 37.137H16.5244C30.4109 37.137 31.3221 37.1283 31.6254 36.9913C33.0724 36.338 33.4511 34.6413 32.405 33.4987C32.2576 33.3377 31.9846 33.1401 31.7984 33.0596L31.4598 32.9132L31.4034 31.4819C31.2302 27.0855 30.2493 23.3528 28.3502 19.8636C27.3086 17.9497 26.3178 16.6648 24.6612 15.0795C24.0588 14.503 23.2587 13.7151 22.8833 13.3288C22.216 12.6421 22.2011 12.6174 22.2162 12.2264C22.2265 11.9604 22.1714 11.7157 22.0518 11.4955L21.8719 11.1645L22.0451 10.8545C22.3863 10.2441 22.2253 9.5438 21.6367 9.07709L21.3814 8.87467L22.2768 7.12391C23.1541 5.40849 23.1722 5.3613 23.1734 4.78505C23.1754 3.8323 22.7504 3.1786 21.8373 2.7299C21.5707 2.59893 21.262 2.54391 20.6272 2.51414C19.5871 2.46537 19.3929 2.36091 18.8073 1.53538C18.0602 0.482005 17.4041 0.0791626 16.4355 0.0791626C16.1001 0.0791626 15.8464 0.147776 15.4336 0.350114ZM17.1853 1.27018C17.3477 1.37498 17.6586 1.71204 17.876 2.01918C18.7094 3.19644 19.0736 3.4137 20.3494 3.49499C21.334 3.55777 21.701 3.69683 21.961 4.10584C22.3123 4.65833 22.2253 4.98339 21.1979 6.95667L20.2643 8.74962H16.5022H12.7402L11.7771 6.89464C10.897 5.19948 10.8176 5.00832 10.8561 4.67584C10.9448 3.91075 11.5778 3.49732 12.6605 3.49732C13.2301 3.49732 13.4008 3.46039 13.8702 3.23546C14.3157 3.02195 14.4909 2.87305 14.8186 2.42994C15.3536 1.70612 15.7845 1.24267 16 1.1588C16.3486 1.02332 16.8801 1.07326 17.1853 1.27018ZM21.0071 9.83634C21.2447 9.95831 21.23 10.3707 20.9819 10.5373C20.8135 10.6505 20.2426 10.6671 16.5168 10.6671C12.3265 10.6671 12.2404 10.6638 12.0158 10.4943C11.7514 10.295 11.7342 10.1925 11.9221 9.93538L12.0573 9.75005H16.4481C19.3085 9.75005 20.8975 9.78015 21.0071 9.83634ZM20.9819 11.7974C21.1948 11.9403 21.2438 12.3188 21.0709 12.4846C20.9925 12.5598 19.8607 12.5846 16.512 12.5846H12.0573L11.9221 12.3993C11.7432 12.1544 11.7513 12.035 11.9606 11.8343C12.1297 11.6721 12.2503 11.6676 16.4616 11.6676C20.2374 11.6676 20.8134 11.6841 20.9819 11.7974ZM22.119 13.9811C24.4546 16.3522 25.4603 19.4798 24.9 22.6307C24.794 23.2264 24.7117 23.3393 24.383 23.3393C23.9988 23.3393 23.8588 23.067 23.9756 22.5473C24.0271 22.318 24.0688 21.5677 24.0681 20.8799C24.0672 19.81 24.0352 19.5141 23.847 18.8312C23.3422 16.9997 22.6204 15.7902 21.2513 14.4813L20.3138 13.5851L20.6793 13.5792C20.8803 13.576 21.123 13.5411 21.2187 13.5017C21.511 13.3812 21.547 13.4003 22.119 13.9811ZM18.467 14.0644C19.059 15.2002 19.3497 16.4009 19.3497 17.7118V18.5724L18.8063 18.377C18.5076 18.2696 18.1945 18.1616 18.1109 18.137C17.9795 18.0984 17.9588 17.9805 17.9588 17.2688C17.9588 16.1368 17.9473 16.1278 16.5076 16.1278C15.1108 16.1278 15.0901 16.1455 15.0901 17.3366V18.1518L14.7893 18.2059C14.2394 18.3049 13.1533 18.893 12.6736 19.3516C11.6865 20.2952 11.2915 21.7689 11.66 23.1342C12.0067 24.4193 13.0469 25.3788 14.6337 25.8772L15.0901 26.0206L15.0864 26.9934L15.0828 27.9663L14.7857 27.6437C14.6223 27.4663 14.4239 27.1286 14.3448 26.8934C14.1257 26.2417 13.9997 26.0905 13.6754 26.0904C13.5211 26.0904 12.8697 26.1909 12.2276 26.3137C10.5693 26.6309 10.5527 26.6558 11.0962 28.0073C11.4374 28.8558 12.093 29.8041 12.682 30.3014C13.1748 30.7174 14.3108 31.3045 14.7893 31.3907L15.0901 31.4448V32.0839C15.0901 33.0802 15.109 33.0936 16.5159 33.0936C17.9236 33.0936 17.9382 33.0844 17.9763 32.1814L18.0022 31.5653L18.5527 31.4579C18.8555 31.3988 19.3836 31.2173 19.7262 31.0544C21.3707 30.2732 22.2184 28.9639 22.2184 27.2052C22.2184 25.3624 21.3025 24.2364 19.1006 23.3716C18.9273 23.3035 19.1114 23.2347 20.2742 22.9331C21.0327 22.7364 21.7218 22.5165 21.8054 22.4443C21.9804 22.2933 21.9981 22.0583 21.8624 21.685C21.7842 21.47 21.8067 21.2774 21.9878 20.6096C22.1886 19.8691 22.3532 18.9311 22.4158 18.1704C22.4594 17.6402 22.9126 19.1677 23.0219 20.213C23.1014 20.9747 23.0938 21.2876 22.9772 22.0607C22.8159 23.1292 22.8646 23.4349 23.2659 23.8732C23.6068 24.2457 23.9452 24.3683 24.5087 24.3234C25.3412 24.2572 25.7597 23.7992 25.9414 22.7557C26.2078 21.225 26.1403 19.7021 25.7406 18.2256L25.5339 17.4618L25.7828 17.7535C25.9197 17.914 26.2761 18.4205 26.575 18.879C28.852 22.3733 30.1453 26.6574 30.3563 31.4053L30.4165 32.7601H29.0992H27.7819V33.2525V33.7449L29.4119 33.7751C31.2255 33.8087 31.4664 33.8691 31.7842 34.3691C32.1017 34.8684 31.9288 35.5953 31.4049 35.9639L31.1594 36.1366H16.5398C2.12769 36.1366 1.9161 36.1342 1.63575 35.9717C1.25247 35.7494 0.970296 35.1847 1.04688 34.7932C1.12721 34.3829 1.57742 33.9366 2.00703 33.8415C2.19828 33.7991 2.99047 33.7636 3.76737 33.7625L5.17999 33.7605V33.2603V32.7601H3.9195H2.65901V31.6851C2.65901 28.1472 3.64349 24.0689 5.2677 20.8787C6.87374 17.7242 9.02544 15.3882 11.6788 13.9184L12.2648 13.5937L15.241 13.5894L18.217 13.5851L18.467 14.0644ZM21.2646 16.341C21.4632 17.6588 21.3062 19.4177 20.8723 20.7348C20.6258 21.4834 20.4237 21.7184 20.0946 21.6392C19.7044 21.5452 19.6636 21.323 19.9084 20.6244C20.2982 19.511 20.4172 18.6727 20.369 17.3784C20.329 16.3048 20.2507 15.855 19.9047 14.7106C19.8764 14.6168 20.1454 14.8198 20.519 15.1738C21.1683 15.7893 21.1855 15.8162 21.2646 16.341ZM16.9156 17.9074C16.9156 18.8654 16.9545 18.9241 17.698 19.0887C18.3491 19.2329 19.0889 19.5538 19.0889 19.692C19.0889 19.814 18.7417 20.8382 18.7002 20.8382C18.6865 20.8382 18.4479 20.7069 18.17 20.5464C17.6136 20.2251 17.3157 20.1833 17.0746 20.3926C16.9313 20.5169 16.9156 20.6853 16.9156 22.0958C16.9156 23.8543 16.9149 23.8521 17.5498 24.0086C19.5614 24.5043 20.3619 24.9725 20.8959 25.9655C21.2207 26.5693 21.27 27.6835 21.0023 28.365C20.5223 29.5867 19.3042 30.4117 17.7502 30.5674C17.033 30.6393 16.9156 30.7718 16.9156 31.5096V32.0931H16.5244H16.1332V31.4738C16.1332 31.0474 16.0945 30.8173 16.0087 30.735C15.9402 30.6694 15.6232 30.5527 15.3044 30.4759C13.9334 30.1456 12.9516 29.3874 12.3146 28.1669C12.1172 27.7887 11.9861 27.4534 12.0233 27.4219C12.0889 27.3663 13.0172 27.1743 13.2201 27.1743C13.2753 27.1743 13.4071 27.3582 13.513 27.5829C13.7964 28.1844 14.3226 28.7108 14.9326 29.0031C15.5396 29.2941 15.6698 29.3103 15.94 29.1288C16.1294 29.0015 16.1332 28.9639 16.1332 27.2173C16.1332 25.7648 16.1098 25.413 16.006 25.3135C15.9362 25.2465 15.5949 25.1088 15.2477 25.0077C13.9648 24.634 13.2611 24.1474 12.8542 23.3527C12.6402 22.9348 12.613 22.7902 12.6162 22.0888C12.6192 21.4467 12.658 21.2145 12.8212 20.8621C13.1938 20.0571 14.2842 19.3085 15.4103 19.0843C16.0854 18.9499 16.1332 18.8762 16.1332 17.9699C16.1332 17.5452 16.1593 17.1727 16.1912 17.1422C16.223 17.1116 16.3991 17.0866 16.5824 17.0866H16.9156V17.9074ZM15.3509 20.3127C14.9176 20.4621 14.3885 20.881 14.2256 21.2037C14.0046 21.6417 13.9931 22.2774 14.1992 22.6704C14.4987 23.2416 15.6065 23.6873 15.9614 23.3793C16.1191 23.2424 16.1332 23.1191 16.1332 21.8804C16.1332 20.6786 16.1158 20.5154 15.9742 20.3926C15.8158 20.2551 15.5987 20.2273 15.3509 20.3127ZM18.2049 21.8595C18.3001 22.0086 18.4064 22.3137 18.4409 22.5376C18.4754 22.7616 18.5766 23.0148 18.6659 23.1004C18.8561 23.2829 18.8488 23.2844 18.345 23.1627L17.9588 23.0695V22.329C17.9588 21.9218 17.9751 21.5886 17.9951 21.5886C18.0152 21.5886 18.1095 21.7104 18.2049 21.8595ZM17.0595 25.7428C16.9362 25.8733 16.9156 26.1224 16.9156 27.4806C16.9156 28.956 16.9276 29.0764 17.0882 29.2157C17.4445 29.525 18.7124 29.1541 19.2005 28.5979C19.5104 28.2446 19.636 27.8192 19.5941 27.2643C19.5371 26.5084 19.0911 26.0515 18.0954 25.729C17.5411 25.5495 17.238 25.5535 17.0595 25.7428ZM18.3382 26.9303C18.7291 27.2251 18.6103 27.9296 18.1282 28.177C17.9661 28.2602 17.9588 28.2315 17.9588 27.5107C17.9588 27.0965 17.9926 26.7575 18.034 26.7575C18.0753 26.7575 18.2123 26.8353 18.3382 26.9303Z" fill="url(#paint0_linear_68_623)"/>
<defs>
<linearGradient id="paint0_linear_68_623" x1="0" y1="18.5705" x2="32.394" y2="18.5705" gradientUnits="userSpaceOnUse">
<stop stop-color="#0CEBEB"/>
<stop offset="0.522565" stop-color="#24F4C0" stop-opacity="0.71"/>
<stop offset="1" stop-color="#29FFC6"/>
</linearGradient>
</defs>
</svg>
