<svg width="64" height="64" viewBox="0 0 64 64" fill="none" xmlns="http://www.w3.org/2000/svg">
<mask id="path-1-inside-1_260_182" fill="white">
<path fill-rule="evenodd" clip-rule="evenodd" d="M28.0399 9.06649C25.7245 9.29314 23.4478 9.89247 21.8646 10.6922C19.8654 11.7018 18.4595 13.1654 17.9668 14.7499C17.6737 15.6925 17.6961 16.2785 18.0655 17.3261C18.2345 17.8057 18.2193 17.9126 17.8918 18.5496C17.5779 19.16 17.5403 19.3869 17.5923 20.3564L17.6517 21.465L16.9937 21.5498C13.7584 21.9671 11.1298 23.3475 9.32922 25.575C8.5 26.6008 7.59926 28.3789 7.25588 29.6677C6.91552 30.9456 6.91452 33.8452 7.25402 35.1292C7.6738 36.7162 8.71814 38.61 9.83172 39.8034C11.9384 42.0609 14.2155 43.1025 17.4126 43.271C20.8478 43.452 24.1564 42.025 26.3123 39.4324C27.1455 38.4304 28.1946 36.432 28.4792 35.3044C28.616 34.7635 28.7281 34.5673 28.8699 34.6217C28.9791 34.6637 29.5443 34.6981 30.1256 34.6981H31.1826L31.1411 35.5496C31.1075 36.2372 31.022 36.4932 30.6969 36.8791C29.7636 37.9868 29.5928 39.4885 30.2547 40.7655C30.5852 41.403 30.6068 41.523 30.4275 41.7251C29.8194 42.4108 29.7433 44.23 30.2775 45.3032L30.6484 46.0477L30.2537 46.855C29.6791 48.0303 29.7058 49.012 30.3448 50.2117C32.1215 53.5478 38.8308 55.5817 46.0633 54.9765C51.6929 54.5053 55.6405 52.8285 57.1431 50.2702C57.5079 49.6492 57.5523 49.4385 57.5523 48.3285C57.5523 47.254 57.5069 47.022 57.2211 46.6347L56.8899 46.1858L57.2728 45.4025C57.604 44.725 57.6487 44.4784 57.603 43.5746C57.5628 42.7775 57.4732 42.4215 57.2253 42.0732L56.9004 41.6164L57.2254 40.9958C57.4579 40.552 57.5651 40.0637 57.6015 39.2819C57.6571 38.094 57.5195 37.6791 56.7427 36.6895C56.4354 36.2981 56.3316 36.01 56.3316 35.5492C56.3316 34.4563 55.6804 33.489 54.2577 32.4682L53.8541 32.1786L54.698 31.3155C56.112 29.8691 57.1271 28.1599 57.5542 26.5058C57.8664 25.2963 57.8695 22.8902 57.5606 21.5473C56.9409 18.853 54.3002 15.9406 51.4118 14.766C49.6741 14.0593 48.2445 13.8202 46.2069 13.8952C44.6211 13.9537 44.1323 14.0317 42.9608 14.4141C42.2023 14.6615 41.5487 14.8641 41.5085 14.8641C41.4683 14.8641 41.2303 14.4474 40.9798 13.938C39.7423 11.4224 36.0229 9.50528 31.6302 9.11909C30.0292 8.97824 29.0833 8.96444 28.0399 9.06649ZM27.2035 10.6968C23.7149 11.188 20.613 12.8058 19.6907 14.6153C18.6267 16.7026 20.214 18.9056 23.7315 20.2233C25.6575 20.9446 27.2249 21.2045 29.7305 21.2175C31.92 21.229 33.4801 21.0205 35.3739 20.463C36.3057 20.1886 36.3255 20.1722 36.9977 19.11C37.6744 18.0409 38.7874 16.7818 39.5897 16.1776L40.0094 15.8615L39.7518 15.0433C39.1679 13.1897 36.7476 11.6581 33.21 10.9036C31.9414 10.6331 28.498 10.5145 27.2035 10.6968ZM26.805 14.0632C26.5601 14.1699 26.2183 14.4862 26.0454 14.7662C25.01 16.4429 26.0716 18.6009 27.9318 18.6009C28.8331 18.6009 29.5368 18.2679 30.0258 17.6099C30.762 16.6191 31.8072 15.7264 32.2308 15.7264C33.0559 15.7264 33.262 16.6848 32.594 17.4152C32.2282 17.815 32.1004 17.819 31.7937 17.4399C31.5543 17.144 31.5492 17.1464 31.2288 17.7168L30.9056 18.2925L31.228 18.5185C32.0193 19.0732 33.1955 18.5612 33.7637 17.415C34.0807 16.7756 34.1374 16.7325 34.6613 16.7325C35.424 16.7325 35.4364 16.3392 34.6774 16.2178C34.1949 16.1406 34.0949 16.0483 33.7798 15.3897C33.3273 14.4435 32.6889 14.0017 31.7741 14.0017C30.984 14.0017 30.2393 14.4675 29.459 15.4497C28.4883 16.6715 28.0866 17.0199 27.6484 17.0199C26.868 17.0199 26.3724 16.1402 26.7524 15.4295C26.9184 15.1192 27.7278 15.0404 27.9958 15.3086C28.212 15.5249 28.7083 15.2471 28.8384 14.8367C28.9139 14.5986 28.8443 14.4405 28.5529 14.1898C28.1156 13.8133 27.4836 13.7674 26.805 14.0632ZM43.9839 15.7362C39.898 16.8066 37.2311 20.0666 37.2311 23.9906C37.2311 25.9675 37.9874 27.968 39.2981 29.4589L39.924 30.1707L42.8501 30.186C46.3594 30.2042 49.2492 30.5502 51.4001 31.2096L52.1413 31.4368L52.7245 30.9746C54.5782 29.5053 55.9193 27.2949 56.2232 25.2082C56.8614 20.8268 53.7819 16.7319 49.0509 15.6708C47.6178 15.3494 45.3485 15.3787 43.9839 15.7362ZM24.7587 15.9973C24.4834 16.1719 24.6159 16.6606 24.9386 16.6606C25.3249 16.6606 25.5939 16.1924 25.3113 16.012C25.0475 15.8437 25.0028 15.8425 24.7587 15.9973ZM19.0684 19.6925C18.8354 20.0485 18.8414 20.0916 19.2325 20.8406C19.611 21.5659 19.6922 21.6339 20.4285 21.841C22.0343 22.2929 23.3227 22.9448 24.8165 24.0617C25.8152 24.8082 27.2152 24.9987 30.8043 24.8761C33.0434 24.7996 35.4041 24.531 35.5586 24.3349C35.5832 24.3036 35.664 23.7432 35.738 23.0896C35.8557 22.0499 35.8453 21.9117 35.6543 21.986C35.5342 22.0328 34.8866 22.2105 34.2153 22.3811C33.1445 22.6534 32.5977 22.6917 29.7633 22.6932C26.6793 22.6948 26.4678 22.6768 25.1231 22.3018C22.605 21.5994 21.097 20.896 19.9586 19.8933L19.3107 19.3225L19.0684 19.6925ZM46.2427 19.5856C46.1957 19.7654 45.9888 19.8811 45.6042 19.9426C44.897 20.0558 44.1609 20.5413 43.733 21.1767C43.3443 21.7541 43.292 22.8491 43.6227 23.4891C43.8532 23.9352 44.7133 24.4962 45.5965 24.7763L46.1351 24.9471V26.3146V27.682L45.6684 27.4102C45.3459 27.2225 45.1615 26.978 45.0719 26.62C44.9356 26.0756 44.6424 25.9309 43.6757 25.9309C43.2055 25.9309 43.1484 26.1572 43.4655 26.7645C43.7959 27.3974 44.4349 27.903 45.2293 28.1605C45.855 28.363 45.9821 28.4633 46.0192 28.7832C46.0568 29.1082 46.1407 29.1711 46.5853 29.2084C46.9996 29.2428 47.1649 29.1787 47.3862 28.8972C47.5396 28.702 47.9264 28.4719 48.2456 28.386C50.2243 27.8527 50.8262 25.3485 49.2625 24.1549C48.9911 23.9477 48.3865 23.6619 47.9189 23.5196L47.0686 23.2609L47.0271 22.0089C46.9893 20.868 47.0094 20.7568 47.2534 20.7568C47.7028 20.7568 48.1457 21.3594 48.1457 21.9707V22.5193L48.7399 22.4395C49.5347 22.3329 49.8304 22.0359 49.6144 21.5616C49.3973 21.0845 48.0602 20.0426 47.5287 19.9362C47.2821 19.8868 47.0727 19.7388 47.0327 19.5851C46.94 19.2308 46.3353 19.2311 46.2427 19.5856ZM45.621 20.778C45.2889 20.9387 44.8426 21.6145 44.8426 21.9567C44.8426 22.2961 45.4417 22.8906 45.8898 22.9961L46.2909 23.0906L46.2488 21.8994C46.2259 21.2441 46.1423 20.6912 46.0633 20.6708C45.9843 20.6504 45.7853 20.6987 45.621 20.778ZM16.1201 23.3014C12.8312 23.8704 10.012 26.311 8.93213 29.524C8.33585 31.2983 8.40823 33.9179 9.10532 35.797C9.48978 36.8331 10.3632 38.1364 11.2897 39.0561C14.7832 42.5247 20.6242 42.6071 24.259 39.2392C25.4558 38.1305 26.1899 36.961 26.7615 35.2537C27.3028 33.6369 27.3487 31.5485 26.8768 30.0062C25.8671 26.7051 23.4101 24.3059 20.1974 23.4835C19.153 23.2162 17.1336 23.1261 16.1201 23.3014ZM47.1404 26.4264V27.6406L47.5755 27.4888C48.452 27.183 48.6295 26.0759 47.8948 25.4974C47.2344 24.9777 47.1404 25.0935 47.1404 26.4264ZM34.0716 26.1707C33.3432 26.2943 31.6782 26.389 29.9432 26.4059C28.3439 26.4212 27.0352 26.4412 27.0351 26.4503C27.0348 26.4593 27.3328 27.0673 27.6973 27.8013L28.3599 29.1359L30.6054 29.0484C31.8405 29.0002 33.2387 28.8919 33.7126 28.8075C35.1223 28.5566 36.5131 28.2063 36.5131 28.1022C36.5131 28.0486 36.3838 27.6369 36.2258 27.187C36.0679 26.7373 35.9386 26.2706 35.9386 26.15C35.9386 25.8885 35.7223 25.8909 34.0716 26.1707ZM17.5084 26.6016C17.4557 26.6542 17.4126 26.8378 17.4126 27.0092C17.4126 27.2672 17.2665 27.3616 16.5654 27.5567C15.6673 27.8066 15.0025 28.3375 14.5913 29.133C14.2991 29.6987 14.2992 30.7869 14.5918 31.353C14.9427 32.0321 15.9052 32.773 16.7369 33.0043L17.4844 33.2121L17.5253 34.6736C17.5711 36.3082 17.4919 36.416 16.6728 35.8323C16.3242 35.5838 16.2631 35.4588 16.3339 35.1367C16.3908 34.877 16.3474 34.6835 16.2058 34.5658C15.9335 34.3398 14.4121 34.1259 14.3052 34.2987C14.157 34.5387 15.0394 36.0481 15.5762 36.4733C15.8696 36.7056 16.4189 36.9739 16.7969 37.0695C17.3728 37.2151 17.4916 37.3034 17.5288 37.6129C17.5989 38.1963 17.9104 38.3679 18.2613 38.0167C18.4229 37.855 18.5203 37.6322 18.4778 37.5215C18.4219 37.3755 18.5707 37.2947 19.0203 37.2273C19.8017 37.11 21.0295 36.416 21.4158 35.8732C22.5515 34.2769 21.8789 32.2915 20.0263 31.7712C19.5658 31.6419 19.0478 31.5361 18.8751 31.5361C18.5727 31.5361 18.5615 31.4827 18.5615 30.03V28.5241L18.9178 28.6865C19.28 28.8516 19.3281 28.9426 19.4973 29.7831C19.5541 30.0649 19.6606 30.2282 19.7594 30.185C19.8508 30.1449 20.2004 30.031 20.5362 29.9319C21.2479 29.7219 21.294 29.5205 20.798 28.79C20.4889 28.3348 19.447 27.678 18.6827 27.4565C18.552 27.4186 18.4014 27.1892 18.3482 26.9467C18.2751 26.6137 18.1722 26.5058 17.9277 26.5058C17.7498 26.5058 17.5609 26.5489 17.5084 26.6016ZM16.6605 28.5991C16.222 28.8373 16.0408 29.3321 16.1837 29.9017C16.2845 30.304 16.9997 31.1049 17.2579 31.1049C17.3576 31.1049 17.4126 30.619 17.4126 29.7396C17.4126 28.2645 17.3767 28.2102 16.6605 28.5991ZM35.5078 29.9701C34.0495 30.3024 30.9389 30.6705 29.5724 30.6723L28.5915 30.6738L28.6658 31.069C28.7067 31.2863 28.7811 31.8361 28.8312 32.2907L28.9223 33.1171H30.4932H32.0644L32.9048 32.5429C33.9558 31.825 34.9898 31.3642 36.5955 30.8984C37.2848 30.6983 37.8824 30.5012 37.9235 30.4599C38.0672 30.316 37.3219 29.6678 37.0266 29.6798C36.8626 29.6865 36.1792 29.8172 35.5078 29.9701ZM40.3316 31.8273C34.9477 32.4458 31.7947 34.3786 32.8472 36.4154C33.1489 36.9994 34.1457 37.8111 35.1487 38.2897C36.2801 38.8296 38.9845 39.5401 40.606 39.7235C47.5461 40.5087 54.7518 38.4326 54.7518 35.6481C54.7518 34.9237 53.852 33.9649 52.5622 33.3147C51.5377 32.7985 49.4317 32.2395 47.5253 31.9778C45.9451 31.7609 41.6854 31.6718 40.3316 31.8273ZM42.8524 32.6245C41.8121 32.9047 41.2989 33.2313 41.0391 33.7792C40.7459 34.3977 40.764 34.6157 41.1446 35.0549C41.442 35.3983 41.8338 35.5436 43.4424 35.9076C43.8143 35.9919 43.8373 36.0429 43.8373 36.7848C43.8373 37.5158 43.813 37.5726 43.4998 37.5726C43.3143 37.5726 42.8946 37.3785 42.5676 37.1414C42.1161 36.8141 41.8168 36.7102 41.3254 36.7102C40.9692 36.7102 40.6778 36.7605 40.6778 36.8219C40.6778 37.3318 42.1863 38.2575 43.3909 38.4869C43.6589 38.538 43.966 38.6926 44.0731 38.8306C44.2522 39.0613 44.2829 39.0627 44.4501 38.8484C44.5502 38.7202 44.9219 38.5668 45.2759 38.5078C46.5869 38.2892 47.284 37.6852 47.284 36.7681C47.284 35.8911 46.6942 35.3609 45.3093 34.9928L44.699 34.8307V34.0457C44.699 33.6141 44.7505 33.2608 44.8134 33.2608C44.8763 33.2608 45.1832 33.5224 45.4952 33.8422C45.947 34.3051 46.1499 34.4149 46.4925 34.3812C47.998 34.2327 45.6839 32.3707 44.0401 32.408C43.81 32.4131 43.2756 32.5106 42.8524 32.6245ZM43.191 33.3397C42.7589 33.5613 42.4012 33.9301 42.4012 34.1542C42.4012 34.2774 42.862 34.4842 43.4846 34.6406C43.8277 34.7268 43.8373 34.7074 43.8373 33.9231C43.8373 33.4799 43.7889 33.1175 43.7296 33.118C43.6703 33.1185 43.428 33.2183 43.191 33.3397ZM18.7051 34.8418C18.7051 35.6323 18.7394 36.279 18.7815 36.279C18.8236 36.279 19.0736 36.1889 19.3371 36.0787C19.9245 35.8331 20.2848 35.3451 20.2848 34.7954C20.2848 34.2988 19.4631 33.4045 19.0067 33.4045C18.7205 33.4045 18.7051 33.4776 18.7051 34.8418ZM44.699 36.9977C44.699 37.7758 44.7214 37.7937 45.3956 37.5585C46.007 37.3452 46.0215 36.8075 45.4242 36.4984C44.7769 36.1633 44.699 36.2171 44.699 36.9977ZM55.0168 38.3468C50.6302 42.3692 37.4216 42.4603 32.5653 38.5019C31.8712 37.936 31.7672 37.8919 31.6513 38.1132C30.4536 40.4013 33.8878 42.9736 39.3626 43.8891C44.5442 44.7555 49.8081 44.1317 53.4853 42.2154C55.209 41.3172 56.3089 39.8638 56.1185 38.7359C55.9454 37.7111 55.7757 37.651 55.0168 38.3468ZM31.5785 42.7025C31.528 42.7531 31.4866 43.1603 31.4866 43.6074C31.4866 44.2703 31.5594 44.5175 31.8816 44.9479C32.7678 46.1322 35.0561 47.4285 37.2775 48.0047C39.9455 48.6966 43.9151 48.9681 46.713 48.65C51.197 48.1402 54.6592 46.631 55.763 44.705C56.2378 43.8766 56.2925 43.3911 55.9638 42.9214L55.7396 42.6012L55.138 43.0138C52.4677 44.8459 48.3416 45.8277 43.4065 45.8054C39.0132 45.7854 35.308 44.844 32.2607 42.973C31.936 42.7737 31.6291 42.6519 31.5785 42.7025ZM31.5492 47.6692C31.2925 48.8239 31.5222 49.4984 32.5031 50.4693C33.6603 51.6143 36.0341 52.6046 39.0263 53.1901C40.6847 53.5148 45.9872 53.5539 47.9303 53.2559C52.2444 52.5944 55.2054 51.0291 55.9793 49.0008C56.2483 48.2963 56.1697 47.3849 55.8289 47.2541C55.7191 47.2119 55.3282 47.3848 54.9601 47.6383C53.9038 48.3656 51.8267 49.1982 49.9463 49.648C43.9378 51.0857 36.8592 50.3135 32.8212 47.7796C32.315 47.462 31.8451 47.2021 31.777 47.2021C31.7088 47.2021 31.6062 47.4122 31.5492 47.6692Z"/>
</mask>
<path fill-rule="evenodd" clip-rule="evenodd" d="M28.0399 9.06649C25.7245 9.29314 23.4478 9.89247 21.8646 10.6922C19.8654 11.7018 18.4595 13.1654 17.9668 14.7499C17.6737 15.6925 17.6961 16.2785 18.0655 17.3261C18.2345 17.8057 18.2193 17.9126 17.8918 18.5496C17.5779 19.16 17.5403 19.3869 17.5923 20.3564L17.6517 21.465L16.9937 21.5498C13.7584 21.9671 11.1298 23.3475 9.32922 25.575C8.5 26.6008 7.59926 28.3789 7.25588 29.6677C6.91552 30.9456 6.91452 33.8452 7.25402 35.1292C7.6738 36.7162 8.71814 38.61 9.83172 39.8034C11.9384 42.0609 14.2155 43.1025 17.4126 43.271C20.8478 43.452 24.1564 42.025 26.3123 39.4324C27.1455 38.4304 28.1946 36.432 28.4792 35.3044C28.616 34.7635 28.7281 34.5673 28.8699 34.6217C28.9791 34.6637 29.5443 34.6981 30.1256 34.6981H31.1826L31.1411 35.5496C31.1075 36.2372 31.022 36.4932 30.6969 36.8791C29.7636 37.9868 29.5928 39.4885 30.2547 40.7655C30.5852 41.403 30.6068 41.523 30.4275 41.7251C29.8194 42.4108 29.7433 44.23 30.2775 45.3032L30.6484 46.0477L30.2537 46.855C29.6791 48.0303 29.7058 49.012 30.3448 50.2117C32.1215 53.5478 38.8308 55.5817 46.0633 54.9765C51.6929 54.5053 55.6405 52.8285 57.1431 50.2702C57.5079 49.6492 57.5523 49.4385 57.5523 48.3285C57.5523 47.254 57.5069 47.022 57.2211 46.6347L56.8899 46.1858L57.2728 45.4025C57.604 44.725 57.6487 44.4784 57.603 43.5746C57.5628 42.7775 57.4732 42.4215 57.2253 42.0732L56.9004 41.6164L57.2254 40.9958C57.4579 40.552 57.5651 40.0637 57.6015 39.2819C57.6571 38.094 57.5195 37.6791 56.7427 36.6895C56.4354 36.2981 56.3316 36.01 56.3316 35.5492C56.3316 34.4563 55.6804 33.489 54.2577 32.4682L53.8541 32.1786L54.698 31.3155C56.112 29.8691 57.1271 28.1599 57.5542 26.5058C57.8664 25.2963 57.8695 22.8902 57.5606 21.5473C56.9409 18.853 54.3002 15.9406 51.4118 14.766C49.6741 14.0593 48.2445 13.8202 46.2069 13.8952C44.6211 13.9537 44.1323 14.0317 42.9608 14.4141C42.2023 14.6615 41.5487 14.8641 41.5085 14.8641C41.4683 14.8641 41.2303 14.4474 40.9798 13.938C39.7423 11.4224 36.0229 9.50528 31.6302 9.11909C30.0292 8.97824 29.0833 8.96444 28.0399 9.06649ZM27.2035 10.6968C23.7149 11.188 20.613 12.8058 19.6907 14.6153C18.6267 16.7026 20.214 18.9056 23.7315 20.2233C25.6575 20.9446 27.2249 21.2045 29.7305 21.2175C31.92 21.229 33.4801 21.0205 35.3739 20.463C36.3057 20.1886 36.3255 20.1722 36.9977 19.11C37.6744 18.0409 38.7874 16.7818 39.5897 16.1776L40.0094 15.8615L39.7518 15.0433C39.1679 13.1897 36.7476 11.6581 33.21 10.9036C31.9414 10.6331 28.498 10.5145 27.2035 10.6968ZM26.805 14.0632C26.5601 14.1699 26.2183 14.4862 26.0454 14.7662C25.01 16.4429 26.0716 18.6009 27.9318 18.6009C28.8331 18.6009 29.5368 18.2679 30.0258 17.6099C30.762 16.6191 31.8072 15.7264 32.2308 15.7264C33.0559 15.7264 33.262 16.6848 32.594 17.4152C32.2282 17.815 32.1004 17.819 31.7937 17.4399C31.5543 17.144 31.5492 17.1464 31.2288 17.7168L30.9056 18.2925L31.228 18.5185C32.0193 19.0732 33.1955 18.5612 33.7637 17.415C34.0807 16.7756 34.1374 16.7325 34.6613 16.7325C35.424 16.7325 35.4364 16.3392 34.6774 16.2178C34.1949 16.1406 34.0949 16.0483 33.7798 15.3897C33.3273 14.4435 32.6889 14.0017 31.7741 14.0017C30.984 14.0017 30.2393 14.4675 29.459 15.4497C28.4883 16.6715 28.0866 17.0199 27.6484 17.0199C26.868 17.0199 26.3724 16.1402 26.7524 15.4295C26.9184 15.1192 27.7278 15.0404 27.9958 15.3086C28.212 15.5249 28.7083 15.2471 28.8384 14.8367C28.9139 14.5986 28.8443 14.4405 28.5529 14.1898C28.1156 13.8133 27.4836 13.7674 26.805 14.0632ZM43.9839 15.7362C39.898 16.8066 37.2311 20.0666 37.2311 23.9906C37.2311 25.9675 37.9874 27.968 39.2981 29.4589L39.924 30.1707L42.8501 30.186C46.3594 30.2042 49.2492 30.5502 51.4001 31.2096L52.1413 31.4368L52.7245 30.9746C54.5782 29.5053 55.9193 27.2949 56.2232 25.2082C56.8614 20.8268 53.7819 16.7319 49.0509 15.6708C47.6178 15.3494 45.3485 15.3787 43.9839 15.7362ZM24.7587 15.9973C24.4834 16.1719 24.6159 16.6606 24.9386 16.6606C25.3249 16.6606 25.5939 16.1924 25.3113 16.012C25.0475 15.8437 25.0028 15.8425 24.7587 15.9973ZM19.0684 19.6925C18.8354 20.0485 18.8414 20.0916 19.2325 20.8406C19.611 21.5659 19.6922 21.6339 20.4285 21.841C22.0343 22.2929 23.3227 22.9448 24.8165 24.0617C25.8152 24.8082 27.2152 24.9987 30.8043 24.8761C33.0434 24.7996 35.4041 24.531 35.5586 24.3349C35.5832 24.3036 35.664 23.7432 35.738 23.0896C35.8557 22.0499 35.8453 21.9117 35.6543 21.986C35.5342 22.0328 34.8866 22.2105 34.2153 22.3811C33.1445 22.6534 32.5977 22.6917 29.7633 22.6932C26.6793 22.6948 26.4678 22.6768 25.1231 22.3018C22.605 21.5994 21.097 20.896 19.9586 19.8933L19.3107 19.3225L19.0684 19.6925ZM46.2427 19.5856C46.1957 19.7654 45.9888 19.8811 45.6042 19.9426C44.897 20.0558 44.1609 20.5413 43.733 21.1767C43.3443 21.7541 43.292 22.8491 43.6227 23.4891C43.8532 23.9352 44.7133 24.4962 45.5965 24.7763L46.1351 24.9471V26.3146V27.682L45.6684 27.4102C45.3459 27.2225 45.1615 26.978 45.0719 26.62C44.9356 26.0756 44.6424 25.9309 43.6757 25.9309C43.2055 25.9309 43.1484 26.1572 43.4655 26.7645C43.7959 27.3974 44.4349 27.903 45.2293 28.1605C45.855 28.363 45.9821 28.4633 46.0192 28.7832C46.0568 29.1082 46.1407 29.1711 46.5853 29.2084C46.9996 29.2428 47.1649 29.1787 47.3862 28.8972C47.5396 28.702 47.9264 28.4719 48.2456 28.386C50.2243 27.8527 50.8262 25.3485 49.2625 24.1549C48.9911 23.9477 48.3865 23.6619 47.9189 23.5196L47.0686 23.2609L47.0271 22.0089C46.9893 20.868 47.0094 20.7568 47.2534 20.7568C47.7028 20.7568 48.1457 21.3594 48.1457 21.9707V22.5193L48.7399 22.4395C49.5347 22.3329 49.8304 22.0359 49.6144 21.5616C49.3973 21.0845 48.0602 20.0426 47.5287 19.9362C47.2821 19.8868 47.0727 19.7388 47.0327 19.5851C46.94 19.2308 46.3353 19.2311 46.2427 19.5856ZM45.621 20.778C45.2889 20.9387 44.8426 21.6145 44.8426 21.9567C44.8426 22.2961 45.4417 22.8906 45.8898 22.9961L46.2909 23.0906L46.2488 21.8994C46.2259 21.2441 46.1423 20.6912 46.0633 20.6708C45.9843 20.6504 45.7853 20.6987 45.621 20.778ZM16.1201 23.3014C12.8312 23.8704 10.012 26.311 8.93213 29.524C8.33585 31.2983 8.40823 33.9179 9.10532 35.797C9.48978 36.8331 10.3632 38.1364 11.2897 39.0561C14.7832 42.5247 20.6242 42.6071 24.259 39.2392C25.4558 38.1305 26.1899 36.961 26.7615 35.2537C27.3028 33.6369 27.3487 31.5485 26.8768 30.0062C25.8671 26.7051 23.4101 24.3059 20.1974 23.4835C19.153 23.2162 17.1336 23.1261 16.1201 23.3014ZM47.1404 26.4264V27.6406L47.5755 27.4888C48.452 27.183 48.6295 26.0759 47.8948 25.4974C47.2344 24.9777 47.1404 25.0935 47.1404 26.4264ZM34.0716 26.1707C33.3432 26.2943 31.6782 26.389 29.9432 26.4059C28.3439 26.4212 27.0352 26.4412 27.0351 26.4503C27.0348 26.4593 27.3328 27.0673 27.6973 27.8013L28.3599 29.1359L30.6054 29.0484C31.8405 29.0002 33.2387 28.8919 33.7126 28.8075C35.1223 28.5566 36.5131 28.2063 36.5131 28.1022C36.5131 28.0486 36.3838 27.6369 36.2258 27.187C36.0679 26.7373 35.9386 26.2706 35.9386 26.15C35.9386 25.8885 35.7223 25.8909 34.0716 26.1707ZM17.5084 26.6016C17.4557 26.6542 17.4126 26.8378 17.4126 27.0092C17.4126 27.2672 17.2665 27.3616 16.5654 27.5567C15.6673 27.8066 15.0025 28.3375 14.5913 29.133C14.2991 29.6987 14.2992 30.7869 14.5918 31.353C14.9427 32.0321 15.9052 32.773 16.7369 33.0043L17.4844 33.2121L17.5253 34.6736C17.5711 36.3082 17.4919 36.416 16.6728 35.8323C16.3242 35.5838 16.2631 35.4588 16.3339 35.1367C16.3908 34.877 16.3474 34.6835 16.2058 34.5658C15.9335 34.3398 14.4121 34.1259 14.3052 34.2987C14.157 34.5387 15.0394 36.0481 15.5762 36.4733C15.8696 36.7056 16.4189 36.9739 16.7969 37.0695C17.3728 37.2151 17.4916 37.3034 17.5288 37.6129C17.5989 38.1963 17.9104 38.3679 18.2613 38.0167C18.4229 37.855 18.5203 37.6322 18.4778 37.5215C18.4219 37.3755 18.5707 37.2947 19.0203 37.2273C19.8017 37.11 21.0295 36.416 21.4158 35.8732C22.5515 34.2769 21.8789 32.2915 20.0263 31.7712C19.5658 31.6419 19.0478 31.5361 18.8751 31.5361C18.5727 31.5361 18.5615 31.4827 18.5615 30.03V28.5241L18.9178 28.6865C19.28 28.8516 19.3281 28.9426 19.4973 29.7831C19.5541 30.0649 19.6606 30.2282 19.7594 30.185C19.8508 30.1449 20.2004 30.031 20.5362 29.9319C21.2479 29.7219 21.294 29.5205 20.798 28.79C20.4889 28.3348 19.447 27.678 18.6827 27.4565C18.552 27.4186 18.4014 27.1892 18.3482 26.9467C18.2751 26.6137 18.1722 26.5058 17.9277 26.5058C17.7498 26.5058 17.5609 26.5489 17.5084 26.6016ZM16.6605 28.5991C16.222 28.8373 16.0408 29.3321 16.1837 29.9017C16.2845 30.304 16.9997 31.1049 17.2579 31.1049C17.3576 31.1049 17.4126 30.619 17.4126 29.7396C17.4126 28.2645 17.3767 28.2102 16.6605 28.5991ZM35.5078 29.9701C34.0495 30.3024 30.9389 30.6705 29.5724 30.6723L28.5915 30.6738L28.6658 31.069C28.7067 31.2863 28.7811 31.8361 28.8312 32.2907L28.9223 33.1171H30.4932H32.0644L32.9048 32.5429C33.9558 31.825 34.9898 31.3642 36.5955 30.8984C37.2848 30.6983 37.8824 30.5012 37.9235 30.4599C38.0672 30.316 37.3219 29.6678 37.0266 29.6798C36.8626 29.6865 36.1792 29.8172 35.5078 29.9701ZM40.3316 31.8273C34.9477 32.4458 31.7947 34.3786 32.8472 36.4154C33.1489 36.9994 34.1457 37.8111 35.1487 38.2897C36.2801 38.8296 38.9845 39.5401 40.606 39.7235C47.5461 40.5087 54.7518 38.4326 54.7518 35.6481C54.7518 34.9237 53.852 33.9649 52.5622 33.3147C51.5377 32.7985 49.4317 32.2395 47.5253 31.9778C45.9451 31.7609 41.6854 31.6718 40.3316 31.8273ZM42.8524 32.6245C41.8121 32.9047 41.2989 33.2313 41.0391 33.7792C40.7459 34.3977 40.764 34.6157 41.1446 35.0549C41.442 35.3983 41.8338 35.5436 43.4424 35.9076C43.8143 35.9919 43.8373 36.0429 43.8373 36.7848C43.8373 37.5158 43.813 37.5726 43.4998 37.5726C43.3143 37.5726 42.8946 37.3785 42.5676 37.1414C42.1161 36.8141 41.8168 36.7102 41.3254 36.7102C40.9692 36.7102 40.6778 36.7605 40.6778 36.8219C40.6778 37.3318 42.1863 38.2575 43.3909 38.4869C43.6589 38.538 43.966 38.6926 44.0731 38.8306C44.2522 39.0613 44.2829 39.0627 44.4501 38.8484C44.5502 38.7202 44.9219 38.5668 45.2759 38.5078C46.5869 38.2892 47.284 37.6852 47.284 36.7681C47.284 35.8911 46.6942 35.3609 45.3093 34.9928L44.699 34.8307V34.0457C44.699 33.6141 44.7505 33.2608 44.8134 33.2608C44.8763 33.2608 45.1832 33.5224 45.4952 33.8422C45.947 34.3051 46.1499 34.4149 46.4925 34.3812C47.998 34.2327 45.6839 32.3707 44.0401 32.408C43.81 32.4131 43.2756 32.5106 42.8524 32.6245ZM43.191 33.3397C42.7589 33.5613 42.4012 33.9301 42.4012 34.1542C42.4012 34.2774 42.862 34.4842 43.4846 34.6406C43.8277 34.7268 43.8373 34.7074 43.8373 33.9231C43.8373 33.4799 43.7889 33.1175 43.7296 33.118C43.6703 33.1185 43.428 33.2183 43.191 33.3397ZM18.7051 34.8418C18.7051 35.6323 18.7394 36.279 18.7815 36.279C18.8236 36.279 19.0736 36.1889 19.3371 36.0787C19.9245 35.8331 20.2848 35.3451 20.2848 34.7954C20.2848 34.2988 19.4631 33.4045 19.0067 33.4045C18.7205 33.4045 18.7051 33.4776 18.7051 34.8418ZM44.699 36.9977C44.699 37.7758 44.7214 37.7937 45.3956 37.5585C46.007 37.3452 46.0215 36.8075 45.4242 36.4984C44.7769 36.1633 44.699 36.2171 44.699 36.9977ZM55.0168 38.3468C50.6302 42.3692 37.4216 42.4603 32.5653 38.5019C31.8712 37.936 31.7672 37.8919 31.6513 38.1132C30.4536 40.4013 33.8878 42.9736 39.3626 43.8891C44.5442 44.7555 49.8081 44.1317 53.4853 42.2154C55.209 41.3172 56.3089 39.8638 56.1185 38.7359C55.9454 37.7111 55.7757 37.651 55.0168 38.3468ZM31.5785 42.7025C31.528 42.7531 31.4866 43.1603 31.4866 43.6074C31.4866 44.2703 31.5594 44.5175 31.8816 44.9479C32.7678 46.1322 35.0561 47.4285 37.2775 48.0047C39.9455 48.6966 43.9151 48.9681 46.713 48.65C51.197 48.1402 54.6592 46.631 55.763 44.705C56.2378 43.8766 56.2925 43.3911 55.9638 42.9214L55.7396 42.6012L55.138 43.0138C52.4677 44.8459 48.3416 45.8277 43.4065 45.8054C39.0132 45.7854 35.308 44.844 32.2607 42.973C31.936 42.7737 31.6291 42.6519 31.5785 42.7025ZM31.5492 47.6692C31.2925 48.8239 31.5222 49.4984 32.5031 50.4693C33.6603 51.6143 36.0341 52.6046 39.0263 53.1901C40.6847 53.5148 45.9872 53.5539 47.9303 53.2559C52.2444 52.5944 55.2054 51.0291 55.9793 49.0008C56.2483 48.2963 56.1697 47.3849 55.8289 47.2541C55.7191 47.2119 55.3282 47.3848 54.9601 47.6383C53.9038 48.3656 51.8267 49.1982 49.9463 49.648C43.9378 51.0857 36.8592 50.3135 32.8212 47.7796C32.315 47.462 31.8451 47.2021 31.777 47.2021C31.7088 47.2021 31.6062 47.4122 31.5492 47.6692Z" stroke="url(#paint0_linear_260_182)" stroke-width="2" mask="url(#path-1-inside-1_260_182)"/>
<defs>
<linearGradient id="paint0_linear_260_182" x1="7" y1="31.9946" x2="56.8576" y2="31.9946" gradientUnits="userSpaceOnUse">
<stop stop-color="#0CEBEB" stop-opacity="0.63"/>
<stop offset="0.522565" stop-color="#24F4C0" stop-opacity="0.71"/>
<stop offset="1" stop-color="#29FFC6"/>
</linearGradient>
</defs>
</svg>
