<svg width="25" height="38" viewBox="0 0 25 38" fill="none" xmlns="http://www.w3.org/2000/svg">
<path fill-rule="evenodd" clip-rule="evenodd" d="M0.518806 0.184611C0.0772391 0.371054 0 0.587811 0 1.63998C0 2.55917 0.00597014 2.5939 0.245672 3.06583C0.38791 3.34589 0.615672 3.65273 0.786716 3.79467C1.02619 3.99342 1.08209 4.08761 1.08209 4.29258C1.08209 4.67017 1.48657 5.39264 1.86724 5.69506C2.04664 5.83759 2.35478 6.01347 2.55194 6.08596L2.91045 6.21778L2.95112 8.34136C2.99537 10.6495 3.05082 11.0551 3.47888 12.2021C3.97664 13.5356 4.71769 14.6604 5.77463 15.6863C6.45888 16.3505 7.62605 17.1461 8.41216 17.4841L8.91388 17.6998L8.91567 18.568L8.91746 19.4362L8.33933 19.7024C7.40082 20.1346 6.61821 20.6817 5.77575 21.4943C4.28896 22.9285 3.41216 24.5517 3.06216 26.5178C2.97993 26.9796 2.94776 27.6734 2.94776 28.9843V30.8082L2.66433 30.8905C1.77485 31.1489 1.09425 31.9926 1.08537 32.8478C1.08246 33.1287 1.04567 33.1953 0.758433 33.4405C0.556045 33.6132 0.353955 33.8877 0.219254 34.1731C0.0172391 34.6007 0.0035822 34.6886 0.00186579 35.57C-0.000223767 36.6295 0.0773132 36.8414 0.535224 37.0268C0.89791 37.1737 24.1021 37.1737 24.4648 37.0268C24.922 36.8416 25 36.6293 25 35.57C25 34.6907 24.9863 34.6012 24.7905 34.1954C24.5576 33.7126 24.3121 33.4295 23.9097 33.1797C23.6914 33.0443 23.6306 32.9538 23.5892 32.7027C23.473 31.9985 22.9854 31.3285 22.3833 31.0459L22.0522 30.8906V29.0287C22.0522 27.1079 21.9705 26.2993 21.6914 25.4562C21.6001 25.1804 21.5121 25.0555 21.3593 24.9846C21.0917 24.8605 20.784 24.9538 20.639 25.2031C20.543 25.3682 20.5506 25.4587 20.7113 26.0655C20.8753 26.6848 20.8932 26.9169 20.918 28.7511L20.9451 30.7588L20.3979 30.7579L19.8507 30.7571L19.6067 30.3263C19.071 29.3808 18.1254 28.4468 16.9829 27.7346C16.3599 27.3463 15.0144 26.7418 14.1045 26.4415C13.3599 26.1958 13.2107 26.1707 12.5 26.1715C11.7919 26.1723 11.6373 26.1985 10.8955 26.4434C9.10866 27.0332 7.46246 27.9642 6.45888 28.9523C6.02933 29.3753 5.44634 30.1543 5.25604 30.5598C5.16634 30.7509 5.14067 30.7588 4.60798 30.7588H4.05336L4.08537 28.7149C4.11366 26.9096 4.13604 26.6049 4.27754 26.1036C4.67433 24.6981 5.34664 23.4979 6.29164 22.508C7.19634 21.5603 8.10634 20.9716 9.67918 20.3166C10.0699 20.1539 10.13 19.8782 10.0994 18.3865C10.071 17.006 10.0736 17.0123 9.4403 16.7408C8.52784 16.3497 8.38298 16.2746 7.74746 15.8625C6.57724 15.1036 5.43836 13.8132 4.85507 12.5853C4.19119 11.1879 4.06716 10.4826 4.06716 8.10565V6.23254H12.5H20.9328V8.10565C20.9328 10.4826 20.8088 11.1879 20.1449 12.5853C19.3319 14.2969 17.6567 15.8711 15.8582 16.6137C14.8928 17.0123 14.9298 16.9441 14.9006 18.3774C14.8719 19.789 14.9391 20.1595 15.2463 20.2839C17.0822 21.0275 18.2866 21.8834 19.2582 23.1349C19.5011 23.4477 19.745 23.6855 19.8491 23.7109C20.1204 23.7768 20.4319 23.5955 20.5118 23.3252C20.5732 23.1172 20.5487 23.0426 20.2985 22.674C19.5938 21.6363 17.8879 20.254 16.5865 19.6661L16.0821 19.4383L16.0841 18.5691L16.0861 17.6998L16.5878 17.4841C17.7535 16.9829 19.2277 15.8368 20.0674 14.7788C20.7636 13.9017 21.4037 12.6851 21.7104 11.6559C21.9902 10.7167 22.052 10.0682 22.0522 8.0681L22.0522 6.10542L22.2948 6.0084C22.8446 5.78861 23.441 5.05984 23.5796 4.43872C23.6168 4.27189 23.7165 4.14918 23.9121 4.02945C24.2813 3.8035 24.5704 3.46339 24.8067 2.97684C24.9837 2.61242 25 2.4997 25 1.63839C25 0.824609 24.9804 0.66971 24.8542 0.489055C24.557 0.0635718 25.0182 0.082889 15.1646 0.082889H6.10813L5.94582 0.250304C5.7303 0.472777 5.73493 0.809199 5.95627 1.01084L6.12903 1.16812H15.0326H23.9362L23.9048 1.80523C23.8684 2.5426 23.7132 2.86347 23.2612 3.13601L22.9851 3.30241L12.661 3.32151C5.31037 3.33511 2.24896 3.31761 2.03127 3.26074C1.64537 3.16003 1.27097 2.8014 1.16485 2.43083C1.11978 2.27354 1.08276 1.92503 1.08254 1.65648L1.08209 1.16812L2.48134 1.16581C3.97388 1.16335 4.0703 1.14273 4.20575 0.797334C4.28985 0.582964 4.14761 0.200673 3.95739 0.129916C3.70522 0.0360793 0.759627 0.082889 0.518806 0.184611ZM22.3602 4.55043C22.2513 4.74642 21.962 4.98496 21.7302 5.07011C21.5856 5.12329 18.6622 5.14731 12.3435 5.14731C2.34881 5.14731 2.87 5.16865 2.46261 4.74252C2.36007 4.63515 2.27612 4.51961 2.27612 4.4856C2.27612 4.4516 6.8109 4.42382 12.3534 4.42382C21.9278 4.42382 22.4271 4.43011 22.3602 4.55043ZM5.13448 8.43925C4.90657 8.59401 4.86731 8.87248 4.95978 9.67671C5.13164 11.1711 5.65269 12.478 6.52 13.59C7.37739 14.6892 8.40104 15.415 9.96022 16.0292C10.8187 16.3674 11.0074 16.6582 11.0076 17.6433C11.0077 18.3829 11.1299 18.6923 11.5222 18.9464C11.7396 19.0871 11.873 19.1106 12.4551 19.1105C13.2143 19.1104 13.5376 19.0009 13.7991 18.6551C13.924 18.4902 13.9598 18.3036 13.9941 17.6422C14.0172 17.1964 14.0736 16.7665 14.1194 16.6869C14.2715 16.4228 14.5551 16.2202 15.0398 16.0292C16.2626 15.5475 17.0503 15.0621 17.8373 14.3057C19.2163 12.9799 20.0222 11.1288 20.0625 9.1945C20.0825 8.23255 20.9404 8.33066 12.5084 8.33066C6.2141 8.33066 5.27403 8.34447 5.13448 8.43925ZM18.8884 9.89006C18.7799 10.9166 18.2235 12.1881 17.4934 13.0775C16.8243 13.8927 15.8989 14.5307 14.7707 14.9545C13.3991 15.4697 12.8731 16.1612 12.8731 17.4491V18.0254H12.5087H12.1443L12.1125 17.32C12.0556 16.057 11.5826 15.4628 10.2293 14.9545C9.10112 14.5307 8.17567 13.8927 7.50664 13.0775C6.77649 12.1881 6.22008 10.9166 6.11157 9.89006L6.06149 9.41589H12.5H18.9385L18.8884 9.89006ZM11.7537 21.0641C11.5631 21.2488 11.5563 21.6505 11.741 21.8125C12.071 22.102 12.6493 21.8558 12.6493 21.4258C12.6493 21.3052 12.5829 21.1444 12.5 21.0641C12.4171 20.9837 12.2513 20.9194 12.1269 20.9194C12.0025 20.9194 11.8366 20.9837 11.7537 21.0641ZM12.7478 22.6694C12.2398 22.9075 12.4562 23.6686 13.0319 23.6686C13.2408 23.6686 13.5448 23.347 13.5448 23.126C13.5448 22.9087 13.24 22.5811 13.0444 22.5883C12.9707 22.591 12.8373 22.6274 12.7478 22.6694ZM11.6284 24.2611C11.2368 24.4446 11.241 25.0241 11.6352 25.1982C12.2557 25.4723 12.7293 24.5856 12.1243 24.2823C11.8784 24.159 11.8489 24.1578 11.6284 24.2611ZM13.5999 27.4394C15.236 27.9463 16.6331 28.6927 17.5593 29.5546C17.9969 29.962 18.5448 30.6066 18.5448 30.7142C18.5448 30.7388 15.8246 30.7588 12.5 30.7588C9.17537 30.7588 6.45522 30.7388 6.45522 30.7142C6.45522 30.6002 7.02537 29.9368 7.48351 29.5179C8.4003 28.6793 9.60843 28.0252 11.1974 27.5069C12.302 27.1466 12.6252 27.1374 13.5999 27.4394ZM21.8784 32.0057C22.1112 32.1292 22.3555 32.4089 22.4482 32.658C22.4929 32.7781 21.9803 32.7846 12.3484 32.7846C6.76761 32.7846 2.20149 32.7667 2.20149 32.7448C2.20149 32.7229 2.24866 32.6171 2.30634 32.5096C2.46172 32.2202 2.75657 31.9798 3.03619 31.9149C3.17224 31.8833 7.41418 31.8625 12.4627 31.8688C21.0204 31.8794 21.6578 31.8887 21.8784 32.0057ZM22.9816 33.95C23.3588 34.0515 23.7304 34.4118 23.8351 34.7776C23.8802 34.9348 23.9172 35.2833 23.9175 35.5519L23.9179 36.0403H12.5H1.08209L1.08254 35.5519C1.08306 34.9341 1.18679 34.5712 1.44119 34.297C1.85157 33.8547 1.28634 33.8764 12.4627 33.8733C19.6634 33.8714 22.7738 33.8941 22.9816 33.95Z" fill="url(#paint0_linear_68_631)"/>
<defs>
<linearGradient id="paint0_linear_68_631" x1="0" y1="18.5705" x2="24.5409" y2="18.5705" gradientUnits="userSpaceOnUse">
<stop stop-color="#0CEBEB"/>
<stop offset="0.522565" stop-color="#24F4C0" stop-opacity="0.71"/>
<stop offset="1" stop-color="#29FFC6"/>
</linearGradient>
</defs>
</svg>
