<svg width="65" height="64" viewBox="0 0 65 64" fill="none" xmlns="http://www.w3.org/2000/svg">
<path fill-rule="evenodd" clip-rule="evenodd" d="M52.0798 5.44692L51.6525 5.89383L52.7735 6.90955C53.3901 7.46828 53.9995 7.92527 54.1275 7.92527C54.2558 7.92527 54.5255 7.75187 54.7269 7.53995L55.093 7.15479L53.8989 6.07731C53.2422 5.48478 52.6604 5 52.6058 5C52.5514 5 52.3147 5.20119 52.0798 5.44692ZM42.3355 6.90257C41.0418 7.20663 39.3958 7.89293 38.4405 8.52658C35.4858 10.4864 33.7772 13.3351 33.5893 16.6145C33.4594 18.8807 33.7116 20.1752 34.6511 22.0641C35.9639 24.704 38.2332 26.597 41.2027 27.5293C46.9639 29.338 52.9329 26.2203 54.933 20.3577C55.2567 19.4092 55.3207 18.8957 55.3179 17.2699C55.3151 15.5716 55.2582 15.1658 54.878 14.1277C53.1682 9.46039 49.2945 6.75338 44.4016 6.80652C43.446 6.81692 42.5164 6.86015 42.3355 6.90257ZM55.5207 8.37755C55.2758 8.63026 55.0756 8.89256 55.0756 8.96066C55.0756 9.06613 55.6915 9.96208 56.082 10.4243C56.148 10.5026 56.4691 10.4038 56.7951 10.2045L57.388 9.8423L57.0947 9.39799C56.9336 9.15356 56.6136 8.72079 56.3838 8.43606L55.9657 7.91829L55.5207 8.37755ZM44.9141 10.5702C44.8184 10.6843 44.717 11.1413 44.6886 11.5859C44.6412 12.3263 44.6024 12.3944 44.226 12.3944C43.841 12.3944 43.8119 12.3354 43.7657 11.46L43.7164 10.5255H43.0671H42.4177V11.4938V12.462L41.1437 12.5095L39.8697 12.557V13.1258C39.8697 13.6795 39.8893 13.6967 40.6095 13.7758L41.3492 13.8571V17.5137V21.1703L40.6095 21.2515L39.8697 21.3328V21.9828V22.6329L41.1437 22.6804L42.4177 22.7278V23.2979C42.4177 24.0505 42.8468 24.8628 43.2081 24.7945C43.4082 24.7566 43.5336 24.4685 43.6547 23.7686C43.7953 22.9574 43.8826 22.787 44.1796 22.7447C44.4767 22.7025 44.5549 22.7972 44.6496 23.3135C44.8178 24.2316 45.1717 24.8269 45.5493 24.8269C45.98 24.8269 46.2539 24.115 46.1276 23.3236C46.0462 22.8139 46.0778 22.7138 46.32 22.7127C46.7847 22.7103 48.2757 21.7912 48.6434 21.2808C48.829 21.023 49.0577 20.4737 49.1514 20.06C49.3677 19.1062 49.0356 18.1935 48.2354 17.5413L47.6809 17.0895L48.0192 16.4484C48.2732 15.9669 48.3409 15.5932 48.2913 14.9474C48.2107 13.8984 47.8165 13.3187 46.8866 12.882L46.1944 12.557L46.2955 11.7754C46.375 11.16 46.3352 10.9271 46.1077 10.6784C45.7783 10.3186 45.1715 10.2637 44.9141 10.5702ZM57.2537 11.1738C56.9598 11.3509 56.7194 11.5494 56.7194 11.6147C56.7194 11.7395 57.235 13.1605 57.3206 13.2714C57.3479 13.3068 57.6642 13.1436 58.0234 12.9086L58.6763 12.4814L58.3336 11.666C58.145 11.2175 57.9451 10.8509 57.8894 10.8512C57.8337 10.8515 57.5476 10.9966 57.2537 11.1738ZM19.5874 12.7921C17.6506 13.2756 17.3811 15.818 19.1664 16.764C19.5228 16.9528 19.8432 17.1236 19.8785 17.1436C19.9137 17.1635 19.3091 17.8377 18.535 18.642C17.6187 19.5939 16.9521 20.4604 16.6251 21.1248C15.7042 22.9958 15.6225 23.6184 15.6225 28.767V33.4514L16.4856 33.3238C16.9601 33.2538 18.3622 33.2073 19.601 33.2208L21.8536 33.245L21.9025 29.1457L21.9515 25.0463L22.4463 24.0903C22.7545 23.495 23.209 22.9326 23.6509 22.5993C24.6757 21.8265 24.8282 21.8788 24.8282 23.0029C24.8282 23.8095 24.8947 24.0138 25.2995 24.4519C25.7352 24.9234 26.6501 25.3113 27.3319 25.3134C27.8849 25.3152 28.9223 24.7935 29.2159 24.3661C29.4819 23.9787 29.5189 23.4525 29.5661 19.3826C29.6256 14.2562 29.5675 13.8566 28.6652 13.1763L28.0742 12.7307L24.1087 12.692C21.9276 12.6707 19.893 12.7159 19.5874 12.7921ZM42.7465 15.3165V16.894L44.4048 16.8383C45.9862 16.785 46.0816 16.7612 46.4597 16.3263C46.9836 15.7239 47.0117 14.6154 46.5143 14.1702C46.2371 13.9224 45.8468 13.8524 44.4594 13.8017L42.7465 13.7389V15.3165ZM58.1169 18.1138C58.0617 18.4541 57.9915 18.8564 57.9611 19.0077C57.893 19.3468 58.3002 19.7278 58.8853 19.8721C59.302 19.9748 59.3307 19.9429 59.4335 19.2657C59.4932 18.8726 59.5172 18.3358 59.4869 18.0729C59.4383 17.651 59.3605 17.5891 58.8246 17.545C58.2366 17.4968 58.2142 17.5148 58.1169 18.1138ZM44.5137 18.1225L42.7465 18.1748V19.6319V21.089H44.6292C45.7388 21.089 46.689 21.0092 46.943 20.8948C47.3845 20.6959 47.8425 20.0088 47.8425 19.5451C47.8425 19.026 47.3498 18.3583 46.8366 18.1813C46.5491 18.0823 46.3065 18.0168 46.2974 18.0357C46.2882 18.0547 45.4857 18.0937 44.5137 18.1225ZM57.2774 21.5779L56.9315 22.5542L57.4613 22.878C58.1986 23.3285 58.2992 23.2953 58.577 22.511C58.7117 22.1311 58.8733 21.6954 58.9364 21.5426C59.0207 21.3381 58.9058 21.1774 58.5016 20.9338C58.1996 20.7516 57.8784 20.6024 57.788 20.6021C57.6974 20.6018 57.4677 21.0409 57.2774 21.5779ZM55.9146 24.313C55.634 24.7453 55.4043 25.146 55.4043 25.2034C55.4043 25.3196 56.7275 26.0173 56.7923 25.9352C57.1475 25.4839 57.7058 24.5434 57.7058 24.396C57.7058 24.2272 56.7438 23.5267 56.5117 23.5267C56.464 23.5267 56.1954 23.8805 55.9146 24.313ZM54.0329 26.6968C53.6923 27.0996 53.4531 27.4923 53.5012 27.5695C53.5496 27.6467 53.8169 27.8032 54.0953 27.9171C54.579 28.1152 54.6311 28.0962 55.2562 27.4926L55.9108 26.8607L55.37 26.4169C55.0724 26.173 54.7892 25.9713 54.7406 25.9688C54.6919 25.9664 54.3733 26.294 54.0329 26.6968ZM47.2672 29.9778C46.3951 30.2274 43.2078 30.3202 42.3091 30.1224L41.7896 30.0078L41.7174 34.8524C41.665 38.3816 41.5841 39.8701 41.4199 40.3345C41.1547 41.0841 39.8552 42.4292 39.1671 42.6665L38.6856 42.8322L38.8268 42.0852C39.0782 40.7548 38.7685 39.7895 37.9276 39.2826C36.9658 38.7029 35.7801 38.958 34.9936 39.914C32.9374 42.4131 32.4177 44.1142 32.0613 47.3848C31.7593 50.1563 32.0858 51.5892 32.3973 52.2255C32.9671 53.3889 33.1684 53.4295 38.3633 53.4295C40.9058 53.4295 43.0743 53.3601 43.311 53.2711C43.8301 53.0759 44.3889 52.2055 44.3897 51.5905C44.3905 51.0209 44.1398 50.5459 43.5505 50.0008C43.0746 49.5605 42.8118 48.8815 42.9646 48.4874C43.0138 48.3608 43.5951 47.8618 44.2564 47.3781C46.486 45.7478 47.5022 44.303 48.207 41.7621C48.5198 40.6344 48.5614 39.9712 48.6243 35.1059C48.7039 28.9785 48.8486 29.5253 47.2672 29.9778ZM11.5452 33.9418C10.8415 34.4534 10.728 34.6433 11.0197 34.8215C11.1101 34.8768 11.1841 35.0021 11.1841 35.1001C11.1841 35.1981 11.0361 35.1458 10.8553 34.9841C10.4918 34.6589 10.5983 34.608 9.40374 35.678L8.99179 36.0469L9.45848 36.5284L9.92518 37.0101L10.7601 36.2301C11.2192 35.801 11.817 35.3133 12.0882 35.1459C13.1483 34.4923 13.181 34.4346 12.7886 33.91C12.5955 33.6516 12.3918 33.4402 12.3363 33.4402C12.2807 33.4402 11.9246 33.6659 11.5452 33.9418ZM17.2777 35.7297C13.8059 36.403 11.1336 38.4463 9.62945 41.5776C8.20651 44.5398 8.21357 47.2775 9.6518 50.1787C10.2921 51.4706 10.647 51.9477 11.8278 53.104C14.1797 55.4072 16.1313 56.1183 19.7322 55.9844C22.1952 55.8928 23.2896 55.5642 25.0848 54.3772C27.2968 52.9145 28.8457 50.764 29.5171 48.2232C29.8879 46.8195 29.777 44.2006 29.2818 42.6701C28.8281 41.2675 27.5497 39.3842 26.2814 38.2495C23.9576 36.1706 20.2929 35.1449 17.2777 35.7297ZM7.3341 37.8104C7.01042 38.2464 6.74559 38.6827 6.74559 38.7801C6.74559 38.9514 7.5792 39.4576 7.84699 39.449C7.91932 39.4467 8.23396 39.0726 8.54613 38.6177C9.09979 37.8113 9.10587 37.7848 8.79271 37.5537C8.00168 36.9698 7.9517 36.9786 7.3341 37.8104ZM19.4973 39.221C19.3553 39.3616 19.2391 39.7272 19.2391 40.0336C19.2391 40.5739 19.2195 40.5908 18.5909 40.5908C17.946 40.5908 17.9427 40.5874 17.8922 39.9001C17.8432 39.2286 17.8258 39.2094 17.2664 39.2094C16.707 39.2094 16.6896 39.2286 16.6406 39.9001L16.5899 40.5908H15.8597H15.1294V41.2235C15.1294 41.636 15.2152 41.8887 15.3759 41.9498C15.5852 42.0291 15.6225 42.608 15.6225 45.7769C15.6225 49.2581 15.5995 49.549 15.2831 50.0794C14.8298 50.8387 15.0468 51.277 15.9107 51.3477C16.4951 51.3955 16.5309 51.4314 16.6089 52.0482C16.6894 52.6847 16.7047 52.6982 17.3486 52.6982C17.9925 52.6982 18.0078 52.6847 18.0883 52.0482C18.1666 51.429 18.198 51.3981 18.7459 51.3981C19.3053 51.3981 19.3227 51.4173 19.3717 52.0888C19.4207 52.7564 19.4411 52.7795 19.9824 52.7795C20.6201 52.7795 20.9636 52.3485 20.8392 51.7049C20.7794 51.3957 20.8346 51.3162 21.1113 51.3133C21.7251 51.3069 22.7997 50.7178 23.2218 50.1563C24.2557 48.7808 24.1728 47.4158 22.9797 46.169L22.4857 45.6527L22.835 44.9394C23.0272 44.5471 23.1827 43.9383 23.1807 43.5866C23.1738 42.3577 22.282 41.0652 21.2673 40.8135C20.9589 40.7369 20.8829 40.609 20.8829 40.167C20.8829 39.5915 20.418 38.9657 19.9905 38.9657C19.8614 38.9657 19.6395 39.0806 19.4973 39.221ZM5.50677 40.9565C5.28566 41.4257 5.10418 41.8939 5.10336 41.9969C5.10172 42.1773 5.92612 42.541 6.33627 42.541C6.48964 42.541 7.23876 40.981 7.23876 40.6618C7.23876 40.564 6.28991 40.1033 6.0887 40.1033C5.98957 40.1033 5.7277 40.4873 5.50677 40.9565ZM16.9376 43.5974V45.1413H18.669C20.8098 45.1413 21.4497 44.9235 21.6746 44.1181C21.8717 43.4123 21.7626 42.8261 21.3531 42.3915C21.0634 42.084 20.8491 42.0535 18.9861 42.0535H16.9376V43.5974ZM4.69075 44.1147C4.63518 44.4558 4.5571 44.8931 4.51732 45.0865C4.45551 45.387 4.53935 45.4536 5.09613 45.5466C5.45416 45.6064 5.82387 45.6085 5.91757 45.5513C6.11171 45.4326 6.15281 43.898 5.96475 43.7886C5.89702 43.7492 5.6054 43.6668 5.31673 43.6056C4.8096 43.4982 4.78856 43.5153 4.69075 44.1147ZM16.9376 48.229V49.8542L18.6226 49.8834C21.6664 49.9361 22.0475 49.8201 22.3746 48.7406C22.5327 48.2185 22.5188 48.0178 22.2912 47.5436C22.1408 47.2304 21.8329 46.8907 21.6071 46.789C21.3674 46.6809 20.3091 46.6039 19.0669 46.6039H16.9376V48.229ZM5.70354 49.6275C5.31295 49.8386 5.2546 49.9504 5.34517 50.3138C5.48573 50.8777 5.95768 51.6802 6.19473 51.7582C6.29698 51.792 6.57907 51.6508 6.82137 51.4447L7.26226 51.0698L6.95815 50.2602C6.62247 49.3663 6.39726 49.2527 5.70354 49.6275ZM7.19766 52.5074C6.94894 52.7085 6.74559 52.9433 6.74576 53.0294C6.74576 53.2314 8.19155 55.055 8.35084 55.0539C8.41725 55.0534 8.68504 54.8842 8.94592 54.6778L9.42018 54.3027L8.64361 53.2566C8.21637 52.6813 7.81806 52.1952 7.75839 52.1762C7.69855 52.1574 7.44638 52.3064 7.19766 52.5074Z" fill="url(#paint0_linear_111_186)"/>
<path d="M19.1664 16.764C17.3811 15.818 17.6506 13.2756 19.5874 12.7921C19.893 12.7159 21.9276 12.6707 24.1087 12.692L28.0742 12.7307L28.6652 13.1763C29.5675 13.8566 29.6256 14.2562 29.5661 19.3826C29.5189 23.4525 29.4819 23.9787 29.2159 24.3661C28.9223 24.7935 27.8849 25.3152 27.3319 25.3134C26.6501 25.3113 25.7352 24.9234 25.2995 24.4519C24.8947 24.0138 24.8282 23.8095 24.8282 23.0029C24.8282 21.8788 24.6757 21.8265 23.6509 22.5993C23.209 22.9326 22.7545 23.495 22.4463 24.0903L21.9515 25.0463L21.9025 29.1457L21.8536 33.245L19.601 33.2208C18.3622 33.2073 16.9601 33.2538 16.4856 33.3238L15.6225 33.4514V28.767C15.6225 23.6184 15.7042 22.9958 16.6251 21.1248C16.9521 20.4604 17.6187 19.5939 18.535 18.642C19.3091 17.8377 19.9137 17.1635 19.8785 17.1436C19.8432 17.1236 19.5228 16.9528 19.1664 16.764Z" fill="url(#paint1_linear_111_186)"/>
<defs>
<linearGradient id="paint0_linear_111_186" x1="4.5" y1="30.4483" x2="58.4899" y2="30.4483" gradientUnits="userSpaceOnUse">
<stop stop-color="#0CEBEB" stop-opacity="0.63"/>
<stop offset="0.522565" stop-color="#24F4C0" stop-opacity="0.71"/>
<stop offset="1" stop-color="#29FFC6"/>
</linearGradient>
<linearGradient id="paint1_linear_111_186" x1="4.5" y1="30.4483" x2="58.4899" y2="30.4483" gradientUnits="userSpaceOnUse">
<stop stop-color="#0CEBEB" stop-opacity="0.63"/>
<stop offset="0.522565" stop-color="#24F4C0" stop-opacity="0.71"/>
<stop offset="1" stop-color="#29FFC6"/>
</linearGradient>
</defs>
</svg>
