<svg width="30" height="38" viewBox="0 0 30 38" fill="none" xmlns="http://www.w3.org/2000/svg">
<path fill-rule="evenodd" clip-rule="evenodd" d="M3.94856 0.252749C3.7924 0.42071 3.78713 0.483198 3.78713 2.16565V3.90497H2.0475H0.307797L0.153936 4.10264L0 4.30031V20.5345V36.7688L0.182302 36.9528L0.36453 37.137H13.1272H25.8899L26.0514 36.9634C26.2076 36.7955 26.2129 36.733 26.2129 35.0505V33.3112H27.9525H29.6922L29.8461 33.1135L30 32.9159V19.2942V5.6725L27.2352 2.87583L24.4705 0.0791626H14.2902H4.11007L3.94856 0.252749ZM23.7624 3.57078V6.01224L23.9447 6.19633L24.1269 6.3805H26.5437H28.9604V19.3207V32.261H16.8936H4.82673V16.6952V1.12938H14.2946H23.7624V3.57078ZM28.1436 5.27341C28.1436 5.30469 27.3917 5.33027 26.4728 5.33027H24.802V3.58676V1.84331L26.4728 3.52989C27.3917 4.45754 28.1436 5.24213 28.1436 5.27341ZM3.78713 18.9596V32.964L3.94856 33.1376L4.11007 33.3112H14.6416H25.1733V34.699V36.0868H13.1064H1.0396V20.521V4.9552H2.41337H3.78713V18.9596ZM15.9515 5.78105C15.1865 5.90385 14.6012 6.08711 13.8861 6.42768C11.3185 7.65067 9.76181 10.2686 9.8997 13.1319C9.99319 15.0745 10.7577 16.7078 12.2024 18.0512C13.4805 19.2398 15.1251 19.8814 16.8936 19.8814C19.8729 19.8814 22.5507 17.9466 23.5084 15.102C24.8336 11.1656 22.5319 6.90291 18.5564 5.93093C17.8389 5.75547 16.5666 5.68225 15.9515 5.78105ZM18.2999 6.94499C19.414 7.2383 20.2088 7.68742 21.0178 8.48094C21.982 9.42667 22.5411 10.4849 22.767 11.7915C22.9959 13.1158 22.7935 14.3698 22.1454 15.642C21.8711 16.1805 21.6619 16.4607 21.129 17.0028C20.7245 17.4144 20.2514 17.8077 19.9381 17.993C17.5738 19.3912 14.5876 19.0102 12.671 17.066C11.9327 16.317 11.5161 15.6198 11.172 14.5572C10.9881 13.9891 10.9649 13.805 10.9594 12.8694C10.9525 11.6791 11.047 11.2072 11.4768 10.288C12.3488 8.42288 14.0191 7.14881 16.0048 6.83404C16.5833 6.74237 17.7429 6.79841 18.2999 6.94499ZM15.9653 7.40724C15.5612 7.47483 14.7881 7.75756 14.2946 8.01817C13.3388 8.52273 12.2786 9.71285 11.8841 10.7241C11.4771 11.767 11.3765 13.0642 11.6238 14.0774C12.1086 16.0628 13.6833 17.6546 15.6312 18.1284C16.3102 18.2936 17.477 18.2937 18.1539 18.1287C20.5821 17.5366 22.2798 15.3424 22.2761 12.8011C22.2748 11.8434 22.1373 11.2526 21.7081 10.3587C21.4183 9.75516 21.2649 9.54534 20.6874 8.96179C20.106 8.37449 19.9059 8.22581 19.3046 7.9343C18.9179 7.74684 18.361 7.53994 18.0671 7.47453C17.5769 7.36553 16.4331 7.32892 15.9653 7.40724ZM18.1038 8.58026C19.446 8.97297 20.5559 10.0292 21.0166 11.3523C21.245 12.008 21.2982 13.2201 21.1277 13.8821C20.735 15.4072 19.5517 16.6186 18.0074 17.0763C17.3247 17.2787 16.3035 17.249 15.5569 17.0051C12.6545 16.057 11.5911 12.544 13.4589 10.0738C13.8023 9.61953 14.4984 9.06247 15.0371 8.81079C15.9864 8.36729 17.0919 8.28417 18.1038 8.58026ZM15.7155 9.08654C15.5514 9.21692 15.5198 9.30162 15.5198 9.61166V9.98126H14.9967C14.5402 9.98126 14.4502 10.0047 14.2912 10.1654C14.0685 10.3903 14.0607 10.5743 14.2628 10.8338C14.3664 10.967 14.4877 11.0315 14.6341 11.0315H14.8515V12.7944V14.5572H14.6625C14.4403 14.5572 14.1089 14.8635 14.1089 15.0688C14.1089 15.1477 14.1782 15.3011 14.2628 15.4098C14.4044 15.5916 14.4609 15.6075 14.9683 15.6075H15.5198V15.9825C15.5198 16.4252 15.697 16.6577 16.0342 16.6577C16.3406 16.6577 16.5594 16.3565 16.5594 15.9349C16.5594 15.6107 16.562 15.6075 16.8193 15.6075C17.0766 15.6075 17.0792 15.6107 17.0792 15.9349C17.0792 16.3565 17.298 16.6577 17.6044 16.6577C17.9369 16.6577 18.1188 16.4244 18.1188 15.9981V15.6386L18.4488 15.5494C19.029 15.3926 19.5199 14.8236 19.642 14.1662C19.7131 13.7831 19.5136 13.1455 19.2313 12.8538L19.0013 12.6161L19.1324 12.3677C19.216 12.2094 19.2635 11.9559 19.2633 11.6691C19.263 10.9897 18.9541 10.4789 18.3601 10.1756C18.1327 10.0595 18.1188 10.0291 18.1188 9.64721C18.1188 9.29877 18.0914 9.22022 17.9231 9.08654C17.6662 8.88235 17.4841 8.89023 17.2615 9.1152C17.1214 9.25668 17.0792 9.37828 17.0792 9.64031C17.0792 9.97998 17.0782 9.98126 16.8193 9.98126C16.5604 9.98126 16.5594 9.97998 16.5594 9.64031C16.5594 9.37828 16.5172 9.25668 16.3771 9.1152C16.1545 8.89023 15.9724 8.88235 15.7155 9.08654ZM18.0503 11.2508C18.3157 11.5189 18.3278 11.7771 18.0883 12.0588L17.9092 12.2692H16.9187H15.9282L15.906 11.7516C15.8938 11.4669 15.9011 11.1883 15.9222 11.1327C15.9517 11.0552 16.1797 11.0315 16.897 11.0315C17.8328 11.0315 17.8333 11.0316 18.0503 11.2508ZM18.4074 13.4883C18.6668 13.7058 18.6851 14.0398 18.453 14.3185L18.2541 14.5572H17.0726H15.8911V13.9571V13.357H17.071C18.0855 13.357 18.2728 13.3754 18.4074 13.4883ZM8.7678 21.9564C8.56545 22.2163 8.57347 22.3999 8.79713 22.6259L8.9804 22.811L16.9256 22.7912C25.5855 22.7697 25.028 22.7993 25.1355 22.3557C25.1678 22.2223 25.1341 22.1037 25.0236 21.9618L24.8655 21.7588H16.8936H8.92166L8.7678 21.9564ZM8.86634 25.0417C8.71114 25.1467 8.61045 25.4321 8.65923 25.6286C8.76297 26.0461 8.53262 26.0347 16.8801 26.0347C22.1185 26.0347 24.6291 26.0093 24.7839 25.9548C24.925 25.9051 25.0455 25.7899 25.1029 25.6499C25.1835 25.4534 25.1764 25.3995 25.0463 25.2234L24.8973 25.0219L16.9227 25.0042C12.5366 24.9943 8.91126 25.0112 8.86634 25.0417ZM8.91215 28.2316C8.62745 28.3771 8.55074 28.689 8.73743 28.9417L8.8898 29.1478H16.8936H24.8973L25.0463 28.9463C25.1753 28.7718 25.1831 28.7154 25.1049 28.5247C25.0553 28.4037 24.9319 28.2665 24.8306 28.2199C24.5503 28.0908 9.16522 28.1022 8.91215 28.2316Z" fill="url(#paint0_linear_68_614)"/>
<defs>
<linearGradient id="paint0_linear_68_614" x1="0" y1="18.5705" x2="29.4491" y2="18.5705" gradientUnits="userSpaceOnUse">
<stop stop-color="#0CEBEB"/>
<stop offset="0.522565" stop-color="#24F4C0" stop-opacity="0.71"/>
<stop offset="1" stop-color="#29FFC6"/>
</linearGradient>
</defs>
</svg>
