<svg width="64" height="64" viewBox="0 0 64 64" fill="none" xmlns="http://www.w3.org/2000/svg">
<path fill-rule="evenodd" clip-rule="evenodd" d="M28.1251 6.4341C25.6616 6.89097 23.3006 7.8916 21.3751 9.29497C20.9969 9.5706 20.2094 10.2815 19.6251 10.8746C16.6883 13.856 15.2723 17.6077 15.3957 22.081L15.4376 23.5992L14.8126 23.7971C14.1193 24.0165 13.6131 24.4272 13.2862 25.0353C13.1124 25.3586 13.0606 25.8512 13.0222 27.5438C12.9546 30.5222 13.0167 30.8983 13.6873 31.5688C14.0391 31.9207 14.3847 32.139 14.6766 32.1937C15.0882 32.271 15.1251 32.3133 15.1251 32.7086C15.1251 33.4906 15.3867 34.2376 15.7749 34.5643C16.4563 35.1377 17.6803 34.8972 17.9992 34.1272C18.2241 33.5842 18.0921 27.1486 17.8094 24.8751C17.5314 22.6395 17.6057 19.9147 17.9901 18.2501C18.2933 16.9365 19.0658 15.1917 19.8656 14.014C21.0558 12.2613 23.2857 10.4526 25.3669 9.5516C29.5142 7.75622 34.5227 8.22472 38.1749 10.7495C42.1056 13.4667 43.9806 17.5305 43.6814 22.684C43.6334 23.511 43.5493 24.274 43.4944 24.3796C43.4397 24.4853 43.3557 25.9197 43.3077 27.5671L43.2207 30.5626L42.8446 31.1876C41.8817 32.7881 40.0642 34.4211 38.1251 35.4277C36.1469 36.4547 32.9294 37.1498 31.1709 36.9301C30.5492 36.8525 30.4853 36.8706 30.1293 37.2266C29.5522 37.8037 29.6718 38.574 30.3968 38.9488C30.7427 39.1277 31.0314 39.147 32.3084 39.0763C35.8393 38.8811 38.1359 38.1635 40.6876 36.4583C41.5457 35.8848 43.3331 34.192 43.8157 33.4956C44.0678 33.1317 44.2734 32.9927 44.7269 32.8797C45.2573 32.7476 46.7046 32.1281 47.5001 31.6927C47.6719 31.5987 47.9251 31.3341 48.0626 31.1047C48.2949 30.7171 48.3097 30.5065 48.2717 28.1251C48.2378 26.0093 48.1921 25.4747 48.0094 25.0585C47.7257 24.4121 47.1261 23.9105 46.4269 23.7343L45.8751 23.5955L45.8747 21.829C45.8742 19.4327 45.6914 18.061 45.1644 16.5001C44.3748 14.161 43.3333 12.4376 41.7601 10.8661C39.6473 8.75572 37.3286 7.45097 34.3126 6.6756C32.7493 6.27372 29.6434 6.15247 28.1251 6.4341ZM28.3326 16.3728C26.7521 16.6595 24.8699 17.4245 23.7509 18.2351C21.9361 19.5498 20.5728 21.4636 20.0451 23.4376C19.8224 24.2706 19.8313 26.6957 20.0638 28.5603C20.7369 33.9563 21.3794 35.8873 23.4061 38.6037C24.8447 40.532 24.9343 40.7308 24.9361 42.0001C24.9373 42.9268 24.8912 43.1542 24.5744 43.7792C24.0174 44.8786 23.4028 45.4187 20.5619 47.3057C19.1186 48.2645 17.3827 49.4176 16.7044 49.8682C15.2078 50.8626 14.2099 51.9058 13.7094 52.9993C13.3932 53.6905 13.3354 53.9753 13.3249 54.8958C13.3114 56.0726 13.4411 56.3832 14.1732 56.9298C14.5171 57.1866 14.5799 57.1877 30.3968 57.2202C41.5817 57.2432 46.4252 57.2126 46.7824 57.1163C47.4312 56.9417 47.9424 56.4285 48.1182 55.7755C48.3123 55.0546 48.0913 53.7643 47.5999 52.7501C46.9703 51.4505 46.0841 50.6903 42.1876 48.1082C40.2626 46.8326 38.3728 45.5012 37.9882 45.1496C36.7221 43.9925 36.2286 42.2807 36.7408 40.8233C36.8838 40.4167 36.9754 40.0588 36.9447 40.028C36.9138 39.9971 36.6183 40.0345 36.2881 40.111C35.3572 40.3263 32.5477 40.6228 31.4376 40.6227C30.2114 40.6226 29.3652 40.279 28.7916 39.5481C27.9714 38.5033 27.9804 37.3811 28.8169 36.4038C29.5112 35.5927 30.1491 35.3987 32.5799 35.2591C35.3934 35.0973 36.4638 34.7678 38.5001 33.4365C39.8013 32.5857 40.7472 31.6312 40.8814 31.0335C41.1638 29.7771 41.5001 26.826 41.5001 25.605C41.5001 23.9453 41.2573 22.8538 40.6152 21.6251C39.3837 19.269 37.0553 17.4251 34.3748 16.6833C33.3584 16.4021 32.8818 16.3482 31.0626 16.309C29.8938 16.2837 28.6653 16.3125 28.3326 16.3728ZM49.1876 32.8853C46.5284 33.3367 44.3571 35.3096 43.4404 38.1072C43.1006 39.1448 43.1124 41.1997 43.4649 42.3126C44.3476 45.0993 46.8518 47.2722 49.5492 47.5917L50.1823 47.6667L49.8412 47.2613C49.4147 46.7545 49.4048 46.2723 49.8037 45.4158C50.1678 44.6337 50.0056 44.4755 49.3181 44.942L48.8712 45.2452L48.2168 44.9523C46.3303 44.108 45.2548 42.1188 45.4064 39.7542C45.5162 38.0423 46.2578 36.6841 47.5517 35.8252C48.4989 35.1965 49.1496 34.9881 50.2501 34.9608L51.1876 34.9376L51.1797 35.5313C51.1754 35.858 51.2076 36.1251 51.2513 36.1251C51.5091 36.1251 52.7859 35.3025 52.8742 35.0795C53.0374 34.6676 53.3751 33.5302 53.3751 33.3926C53.3751 33.2193 52.7264 33.0341 51.5848 32.8811C50.4806 32.7331 50.0804 32.7338 49.1876 32.8853ZM52.7501 32.8477C52.7501 32.9013 52.9152 33.0076 53.1171 33.0838C53.4026 33.1916 53.4977 33.1865 53.5459 33.061C53.5799 32.9722 53.5742 32.866 53.5331 32.8248C53.4227 32.7143 52.7501 32.734 52.7501 32.8477ZM54.7059 34.2813C54.6014 34.5735 54.4823 35.0206 54.4412 35.2747C54.3717 35.703 54.4086 35.7758 54.9443 36.2697C56.0188 37.2601 56.5763 38.8567 56.4571 40.6018C56.2969 42.9471 54.7516 44.7731 52.4712 45.3116C51.4686 45.5483 51.1251 45.8231 51.1251 46.3882C51.1251 46.6663 51.2419 46.8332 51.6377 47.12C52.2873 47.5905 52.5869 47.6843 52.9212 47.5222C53.0677 47.4511 53.4774 47.3018 53.8317 47.1905C55.0009 46.823 56.3982 45.7165 57.3079 44.4376C58.4451 42.8388 58.9524 40.5653 58.5744 38.7618C58.1942 36.9475 57.1694 35.2778 55.8301 34.2902C55.4272 33.9931 55.0522 33.7501 54.9967 33.7501C54.9412 33.7501 54.8103 33.9892 54.7059 34.2813ZM47.3126 37.7091C46.8927 37.8231 46.7501 38.0118 46.7501 38.4528C46.7501 38.8507 46.7749 38.8751 47.1802 38.8751C47.4168 38.8751 47.6451 38.8188 47.6876 38.7501C47.8202 38.5353 48.2296 38.6135 48.3106 38.8688C48.4159 39.2008 48.1222 39.7037 47.4307 40.3751C46.7988 40.9887 46.5781 41.405 46.6928 41.7666C46.7589 41.9748 46.9072 42.0001 48.0611 42.0001H49.3552L49.4424 41.603C49.5548 41.0912 49.2816 40.8751 48.5223 40.8751H47.9674L48.6189 40.3563C49.5649 39.6031 49.7764 38.7846 49.2084 38.0747C48.9614 37.7661 48.8166 37.7065 48.2403 37.6765C47.8676 37.657 47.4501 37.6717 47.3126 37.7091ZM51.6108 37.9063C51.4704 38.0611 51.1256 38.5532 50.8443 39.0001C50.5632 39.447 50.2261 39.933 50.0952 40.0802C49.9364 40.2586 49.8706 40.4876 49.8973 40.7677C49.9374 41.1858 49.9406 41.1877 50.6563 41.2251C51.3239 41.2598 51.3751 41.2842 51.3751 41.5665C51.3751 41.8942 51.7248 42.0568 52.2632 41.9792C52.6664 41.9211 53.0581 40.873 52.8026 40.5361C52.6881 40.3851 52.6317 39.9252 52.6291 39.1188C52.6266 38.362 52.5702 37.8702 52.4751 37.7751C52.2433 37.5433 51.8919 37.5967 51.6108 37.9063ZM54.2578 38.9283C54.0873 39.1336 53.2487 41.3996 53.1597 41.8952C53.1153 42.1421 53.1669 42.2637 53.3597 42.3668C53.7633 42.5828 54.0047 42.2375 54.6074 40.5817C55.0341 39.4098 55.1128 39.0733 54.9938 38.9301C54.8029 38.7 54.4479 38.6991 54.2578 38.9283ZM51.1979 39.9833C51.1441 40.0705 51.1338 40.1755 51.1751 40.2167C51.2869 40.3286 51.4089 40.1641 51.3484 39.9828C51.3062 39.8558 51.2767 39.8558 51.1979 39.9833Z" fill="url(#paint0_linear_111_167)"/>
<defs>
<linearGradient id="paint0_linear_111_167" x1="13.001" y1="31.7025" x2="57.8589" y2="31.7025" gradientUnits="userSpaceOnUse">
<stop stop-color="#0CEBEB" stop-opacity="0.63"/>
<stop offset="0.522565" stop-color="#24F4C0" stop-opacity="0.71"/>
<stop offset="1" stop-color="#29FFC6"/>
</linearGradient>
</defs>
</svg>
