<svg width="51" height="51" viewBox="0 0 51 51" fill="none" xmlns="http://www.w3.org/2000/svg">
<mask id="mask0_68_588" style="mask-type:luminance" maskUnits="userSpaceOnUse" x="0" y="0" width="51" height="51">
<path d="M51 0H0V51H51V0Z" fill="white"/>
</mask>
<g mask="url(#mask0_68_588)">
<path fill-rule="evenodd" clip-rule="evenodd" d="M13.5 25.5C20.1274 25.5 25.5 20.1274 25.5 13.5C25.5 20.1274 30.8726 25.5 37.5 25.5C30.8726 25.5 25.5 30.8726 25.5 37.5C25.5 30.8726 20.1274 25.5 13.5 25.5ZM13.5 25.5C6.87259 25.5 1.5 30.8726 1.5 37.5C1.5 44.1274 6.87259 49.5 13.5 49.5C20.1274 49.5 25.5 44.1274 25.5 37.5C25.5 44.1274 30.8726 49.5 37.5 49.5C44.1274 49.5 49.5 44.1274 49.5 37.5C49.5 30.8726 44.1274 25.5 37.5 25.5C44.1274 25.5 49.5 20.1274 49.5 13.5C49.5 6.87259 44.1274 1.5 37.5 1.5C30.8726 1.5 25.5 6.87259 25.5 13.5C25.5 6.87259 20.1274 1.5 13.5 1.5C6.87259 1.5 1.5 6.87259 1.5 13.5C1.5 20.1274 6.87259 25.5 13.5 25.5Z" fill="url(#paint0_linear_68_588)"/>
</g>
<defs>
<linearGradient id="paint0_linear_68_588" x1="1.5" y1="25.4513" x2="48.6185" y2="25.4513" gradientUnits="userSpaceOnUse">
<stop stop-color="#0CEBEB"/>
<stop offset="0.522565" stop-color="#24F4C0" stop-opacity="0.71"/>
<stop offset="1" stop-color="#29FFC6"/>
</linearGradient>
</defs>
</svg>
