<svg width="50" height="51" viewBox="0 0 50 51" fill="none" xmlns="http://www.w3.org/2000/svg">
<mask id="mask0_68_580" style="mask-type:luminance" maskUnits="userSpaceOnUse" x="0" y="0" width="50" height="51">
<path d="M50 0H0V51H50V0Z" fill="white"/>
</mask>
<g mask="url(#mask0_68_580)">
<path fill-rule="evenodd" clip-rule="evenodd" d="M13 25.5C19.6274 25.5 25 20.1274 25 13.5C25 20.1274 30.3726 25.5 37 25.5C30.3726 25.5 25 30.8726 25 37.5C25 30.8726 19.6274 25.5 13 25.5ZM13 25.5C6.37259 25.5 1 30.8726 1 37.5C1 44.1274 6.37259 49.5 13 49.5C19.6274 49.5 25 44.1274 25 37.5C25 44.1274 30.3726 49.5 37 49.5C43.6274 49.5 49 44.1274 49 37.5C49 30.8726 43.6274 25.5 37 25.5C43.6274 25.5 49 20.1274 49 13.5C49 6.87259 43.6274 1.5 37 1.5C30.3726 1.5 25 6.87259 25 13.5C25 6.87259 19.6274 1.5 13 1.5C6.37259 1.5 1 6.87259 1 13.5C1 20.1274 6.37259 25.5 13 25.5Z" fill="url(#paint0_linear_68_580)"/>
<path d="M25 37.5C25 30.8726 30.3726 25.5 37 25.5C43.6274 25.5 49 30.8726 49 37.5C49 44.1274 43.6274 49.5 37 49.5C30.3726 49.5 25 44.1274 25 37.5Z" fill="#EAECF0"/>
</g>
<defs>
<linearGradient id="paint0_linear_68_580" x1="1" y1="25.4513" x2="48.1185" y2="25.4513" gradientUnits="userSpaceOnUse">
<stop stop-color="#0CEBEB"/>
<stop offset="0.522565" stop-color="#24F4C0" stop-opacity="0.71"/>
<stop offset="1" stop-color="#29FFC6"/>
</linearGradient>
</defs>
</svg>
