<svg width="52" height="51" viewBox="0 0 52 51" fill="none" xmlns="http://www.w3.org/2000/svg">
<mask id="mask0_68_555" style="mask-type:luminance" maskUnits="userSpaceOnUse" x="0" y="0" width="52" height="51">
<path d="M52 0H0V51H52V0Z" fill="white"/>
</mask>
<g mask="url(#mask0_68_555)">
<path fill-rule="evenodd" clip-rule="evenodd" d="M14 25.5C20.6274 25.5 26 20.1274 26 13.5C26 20.1274 31.3726 25.5 38 25.5C31.3726 25.5 26 30.8726 26 37.5C26 30.8726 20.6274 25.5 14 25.5ZM14 25.5C7.37259 25.5 2 30.8726 2 37.5C2 44.1274 7.37259 49.5 14 49.5C20.6274 49.5 26 44.1274 26 37.5C26 44.1274 31.3726 49.5 38 49.5C44.6274 49.5 50 44.1274 50 37.5C50 30.8726 44.6274 25.5 38 25.5C44.6274 25.5 50 20.1274 50 13.5C50 6.87259 44.6274 1.5 38 1.5C31.3726 1.5 26 6.87259 26 13.5C26 6.87259 20.6274 1.5 14 1.5C7.37259 1.5 2 6.87259 2 13.5C2 20.1274 7.37259 25.5 14 25.5Z" fill="url(#paint0_linear_68_555)"/>
<path d="M26 37.5C26 30.8726 31.3726 25.5 38 25.5C44.6274 25.5 50 30.8726 50 37.5C50 44.1274 44.6274 49.5 38 49.5C31.3726 49.5 26 44.1274 26 37.5Z" fill="#EAECF0"/>
<path d="M2 37.5C2 30.8726 7.37264 25.5 14 25.5C20.6274 25.5 26 30.8726 26 37.5C26 44.1274 20.6274 49.5 14 49.5C7.37264 49.5 2 44.1274 2 37.5Z" fill="#EAECF0"/>
<path d="M26 13.5C26 6.87264 31.3726 1.5 38 1.5C44.6274 1.5 50 6.87264 50 13.5C50 20.1274 44.6274 25.5 38 25.5C31.3726 25.5 26 20.1274 26 13.5Z" fill="#EAECF0"/>
</g>
<defs>
<linearGradient id="paint0_linear_68_555" x1="2" y1="25.4513" x2="49.1185" y2="25.4513" gradientUnits="userSpaceOnUse">
<stop stop-color="#0CEBEB"/>
<stop offset="0.522565" stop-color="#24F4C0" stop-opacity="0.71"/>
<stop offset="1" stop-color="#29FFC6"/>
</linearGradient>
</defs>
</svg>
