<svg width="44" height="44" viewBox="0 0 44 44" fill="none" xmlns="http://www.w3.org/2000/svg">
<path d="M21.9998 27.5001C25.0374 27.5001 27.4998 25.0376 27.4998 22.0001C27.4998 18.9625 25.0374 16.5001 21.9998 16.5001C18.9623 16.5001 16.4998 18.9625 16.4998 22.0001C16.4998 25.0376 18.9623 27.5001 21.9998 27.5001Z" fill="#0CEBEB" fill-opacity="0.1"/>
<path d="M34.3332 27.0001C34.1113 27.5028 34.0451 28.0604 34.1432 28.6011C34.2412 29.1417 34.4989 29.6406 34.8832 30.0334L34.9832 30.1334C35.2931 30.443 35.539 30.8106 35.7067 31.2153C35.8745 31.6199 35.9608 32.0537 35.9608 32.4917C35.9608 32.9298 35.8745 33.3636 35.7067 33.7682C35.539 34.1729 35.2931 34.5405 34.9832 34.8501C34.6736 35.16 34.306 35.4059 33.9013 35.5736C33.4966 35.7414 33.0629 35.8277 32.6248 35.8277C32.1868 35.8277 31.753 35.7414 31.3484 35.5736C30.9437 35.4059 30.5761 35.16 30.2665 34.8501L30.1665 34.7501C29.7737 34.3659 29.2748 34.1081 28.7342 34.0101C28.1935 33.912 27.6359 33.9782 27.1332 34.2001C26.6402 34.4114 26.2198 34.7622 25.9237 35.2093C25.6276 35.6565 25.4686 36.1804 25.4665 36.7167V37.0001C25.4665 37.8841 25.1153 38.732 24.4902 39.3571C23.8651 39.9822 23.0172 40.3334 22.1332 40.3334C21.2491 40.3334 20.4013 39.9822 19.7761 39.3571C19.151 38.732 18.7998 37.8841 18.7998 37.0001V36.8501C18.7869 36.2984 18.6084 35.7634 18.2874 35.3146C17.9663 34.8658 17.5177 34.5239 16.9998 34.3334C16.4971 34.1116 15.9395 34.0454 15.3989 34.1434C14.8582 34.2414 14.3593 34.4992 13.9665 34.8834L13.8665 34.9834C13.5569 35.2933 13.1893 35.5392 12.7846 35.7069C12.38 35.8747 11.9462 35.961 11.5082 35.961C11.0701 35.961 10.6364 35.8747 10.2317 35.7069C9.82704 35.5392 9.45941 35.2933 9.14984 34.9834C8.83992 34.6738 8.59405 34.3062 8.4263 33.9015C8.25856 33.4969 8.17221 33.0631 8.17221 32.6251C8.17221 32.187 8.25856 31.7533 8.4263 31.3486C8.59405 30.944 8.83992 30.5763 9.14984 30.2667L9.24984 30.1667C9.63406 29.7739 9.89181 29.2751 9.98984 28.7344C10.0879 28.1937 10.0217 27.6361 9.79984 27.1334C9.58857 26.6405 9.23776 26.2201 8.79061 25.9239C8.34346 25.6278 7.81948 25.4689 7.28317 25.4667H6.99984C6.11578 25.4667 5.26794 25.1156 4.64281 24.4904C4.01769 23.8653 3.6665 23.0175 3.6665 22.1334C3.6665 21.2494 4.01769 20.4015 4.64281 19.7764C5.26794 19.1513 6.11578 18.8001 6.99984 18.8001H7.14984C7.70149 18.7872 8.23651 18.6086 8.68534 18.2876C9.13416 17.9666 9.47603 17.518 9.6665 17.0001C9.88836 16.4974 9.95454 15.9398 9.85651 15.3991C9.75848 14.8584 9.50073 14.3595 9.1165 13.9667L9.0165 13.8667C8.70658 13.5572 8.46072 13.1895 8.29297 12.7849C8.12522 12.3802 8.03888 11.9465 8.03888 11.5084C8.03888 11.0704 8.12522 10.6366 8.29297 10.2319C8.46072 9.82729 8.70658 9.45966 9.0165 9.15008C9.32608 8.84016 9.69371 8.5943 10.0984 8.42655C10.503 8.2588 10.9368 8.17246 11.3748 8.17246C11.8129 8.17246 12.2466 8.2588 12.6513 8.42655C13.056 8.5943 13.4236 8.84016 13.7332 9.15008L13.8332 9.25008C14.226 9.63431 14.7249 9.89206 15.2655 9.99009C15.8062 10.0881 16.3638 10.0219 16.8665 9.80008H16.9998C17.4928 9.58881 17.9132 9.23801 18.2093 8.79086C18.5055 8.34371 18.6644 7.81973 18.6665 7.28341V7.00008C18.6665 6.11603 19.0177 5.26818 19.6428 4.64306C20.2679 4.01794 21.1158 3.66675 21.9998 3.66675C22.8839 3.66675 23.7317 4.01794 24.3569 4.64306C24.982 5.26818 25.3332 6.11603 25.3332 7.00008V7.15008C25.3353 7.68639 25.4942 8.21037 25.7903 8.65752C26.0865 9.10467 26.5069 9.45548 26.9998 9.66675C27.5025 9.88861 28.0602 9.95479 28.6008 9.85676C29.1415 9.75872 29.6404 9.50098 30.0332 9.11675L30.1332 9.01675C30.4427 8.70683 30.8104 8.46096 31.215 8.29322C31.6197 8.12547 32.0535 8.03913 32.4915 8.03913C32.9296 8.03913 33.3633 8.12547 33.768 8.29322C34.1726 8.46096 34.5403 8.70683 34.8498 9.01675C35.1598 9.32632 35.4056 9.69395 35.5734 10.0986C35.7411 10.5033 35.8275 10.937 35.8275 11.3751C35.8275 11.8131 35.7411 12.2469 35.5734 12.6515C35.4056 13.0562 35.1598 13.4238 34.8498 13.7334L34.7498 13.8334C34.3656 14.2262 34.1079 14.7251 34.0098 15.2658C33.9118 15.8064 33.978 16.3641 34.1998 16.8667V17.0001C34.4111 17.493 34.7619 17.9134 35.2091 18.2096C35.6562 18.5057 36.1802 18.6646 36.7165 18.6667H36.9998C37.8839 18.6667 38.7317 19.0179 39.3569 19.6431C39.982 20.2682 40.3332 21.116 40.3332 22.0001C40.3332 22.8841 39.982 23.732 39.3569 24.3571C38.7317 24.9822 37.8839 25.3334 36.9998 25.3334H36.8498C36.3135 25.3356 35.7895 25.4945 35.3424 25.7906C34.8952 26.0867 34.5444 26.5071 34.3332 27.0001Z" fill="#0CEBEB" fill-opacity="0.1"/>
<path d="M21.9998 27.5001C25.0374 27.5001 27.4998 25.0376 27.4998 22.0001C27.4998 18.9625 25.0374 16.5001 21.9998 16.5001C18.9623 16.5001 16.4998 18.9625 16.4998 22.0001C16.4998 25.0376 18.9623 27.5001 21.9998 27.5001Z" stroke="url(#paint0_linear_179_177)" stroke-width="3" stroke-linecap="round" stroke-linejoin="round"/>
<path d="M34.3332 27.0001C34.1113 27.5028 34.0451 28.0604 34.1432 28.6011C34.2412 29.1417 34.4989 29.6406 34.8832 30.0334L34.9832 30.1334C35.2931 30.443 35.539 30.8106 35.7067 31.2153C35.8745 31.6199 35.9608 32.0537 35.9608 32.4917C35.9608 32.9298 35.8745 33.3636 35.7067 33.7682C35.539 34.1729 35.2931 34.5405 34.9832 34.8501C34.6736 35.16 34.306 35.4059 33.9013 35.5736C33.4966 35.7414 33.0629 35.8277 32.6248 35.8277C32.1868 35.8277 31.753 35.7414 31.3484 35.5736C30.9437 35.4059 30.5761 35.16 30.2665 34.8501L30.1665 34.7501C29.7737 34.3659 29.2748 34.1081 28.7342 34.0101C28.1935 33.912 27.6359 33.9782 27.1332 34.2001C26.6402 34.4114 26.2198 34.7622 25.9237 35.2093C25.6276 35.6565 25.4686 36.1804 25.4665 36.7167V37.0001C25.4665 37.8841 25.1153 38.732 24.4902 39.3571C23.8651 39.9822 23.0172 40.3334 22.1332 40.3334C21.2491 40.3334 20.4013 39.9822 19.7761 39.3571C19.151 38.732 18.7998 37.8841 18.7998 37.0001V36.8501C18.7869 36.2984 18.6084 35.7634 18.2874 35.3146C17.9663 34.8658 17.5177 34.5239 16.9998 34.3334C16.4971 34.1116 15.9395 34.0454 15.3989 34.1434C14.8582 34.2414 14.3593 34.4992 13.9665 34.8834L13.8665 34.9834C13.5569 35.2933 13.1893 35.5392 12.7846 35.7069C12.38 35.8747 11.9462 35.961 11.5082 35.961C11.0701 35.961 10.6364 35.8747 10.2317 35.7069C9.82704 35.5392 9.45941 35.2933 9.14984 34.9834C8.83992 34.6738 8.59405 34.3062 8.4263 33.9015C8.25856 33.4969 8.17221 33.0631 8.17221 32.6251C8.17221 32.187 8.25856 31.7533 8.4263 31.3486C8.59405 30.944 8.83992 30.5763 9.14984 30.2667L9.24984 30.1667C9.63406 29.7739 9.89181 29.2751 9.98984 28.7344C10.0879 28.1937 10.0217 27.6361 9.79984 27.1334C9.58857 26.6405 9.23776 26.2201 8.79061 25.9239C8.34346 25.6278 7.81948 25.4689 7.28317 25.4667H6.99984C6.11578 25.4667 5.26794 25.1156 4.64281 24.4904C4.01769 23.8653 3.6665 23.0175 3.6665 22.1334C3.6665 21.2494 4.01769 20.4015 4.64281 19.7764C5.26794 19.1513 6.11578 18.8001 6.99984 18.8001H7.14984C7.70149 18.7872 8.23651 18.6086 8.68534 18.2876C9.13416 17.9666 9.47603 17.518 9.6665 17.0001C9.88836 16.4974 9.95454 15.9398 9.85651 15.3991C9.75848 14.8584 9.50073 14.3595 9.1165 13.9667L9.0165 13.8667C8.70658 13.5572 8.46072 13.1895 8.29297 12.7849C8.12522 12.3802 8.03888 11.9465 8.03888 11.5084C8.03888 11.0704 8.12522 10.6366 8.29297 10.2319C8.46072 9.82729 8.70658 9.45966 9.0165 9.15008C9.32608 8.84016 9.69371 8.5943 10.0984 8.42655C10.503 8.2588 10.9368 8.17246 11.3748 8.17246C11.8129 8.17246 12.2466 8.2588 12.6513 8.42655C13.056 8.5943 13.4236 8.84016 13.7332 9.15008L13.8332 9.25008C14.226 9.63431 14.7249 9.89206 15.2655 9.99009C15.8062 10.0881 16.3638 10.0219 16.8665 9.80008H16.9998C17.4928 9.58881 17.9132 9.23801 18.2093 8.79086C18.5055 8.34371 18.6644 7.81973 18.6665 7.28341V7.00008C18.6665 6.11603 19.0177 5.26818 19.6428 4.64306C20.2679 4.01794 21.1158 3.66675 21.9998 3.66675C22.8839 3.66675 23.7317 4.01794 24.3569 4.64306C24.982 5.26818 25.3332 6.11603 25.3332 7.00008V7.15008C25.3353 7.68639 25.4942 8.21037 25.7903 8.65752C26.0865 9.10467 26.5069 9.45548 26.9998 9.66675C27.5025 9.88861 28.0602 9.95479 28.6008 9.85676C29.1415 9.75872 29.6404 9.50098 30.0332 9.11675L30.1332 9.01675C30.4427 8.70683 30.8104 8.46096 31.215 8.29322C31.6197 8.12547 32.0535 8.03913 32.4915 8.03913C32.9296 8.03913 33.3633 8.12547 33.768 8.29322C34.1726 8.46096 34.5403 8.70683 34.8498 9.01675C35.1598 9.32632 35.4056 9.69395 35.5734 10.0986C35.7411 10.5033 35.8275 10.937 35.8275 11.3751C35.8275 11.8131 35.7411 12.2469 35.5734 12.6515C35.4056 13.0562 35.1598 13.4238 34.8498 13.7334L34.7498 13.8334C34.3656 14.2262 34.1079 14.7251 34.0098 15.2658C33.9118 15.8064 33.978 16.3641 34.1998 16.8667V17.0001C34.4111 17.493 34.7619 17.9134 35.2091 18.2096C35.6562 18.5057 36.1802 18.6646 36.7165 18.6667H36.9998C37.8839 18.6667 38.7317 19.0179 39.3569 19.6431C39.982 20.2682 40.3332 21.116 40.3332 22.0001C40.3332 22.8841 39.982 23.732 39.3569 24.3571C38.7317 24.9822 37.8839 25.3334 36.9998 25.3334H36.8498C36.3135 25.3356 35.7895 25.4945 35.3424 25.7906C34.8952 26.0867 34.5444 26.5071 34.3332 27.0001Z" stroke="url(#paint1_linear_179_177)" stroke-width="3" stroke-linecap="round" stroke-linejoin="round"/>
<defs>
<linearGradient id="paint0_linear_179_177" x1="3.6665" y1="21.9629" x2="39.6598" y2="21.9629" gradientUnits="userSpaceOnUse">
<stop stop-color="#0CEBEB"/>
<stop offset="0.522565" stop-color="#24F4C0" stop-opacity="0.71"/>
<stop offset="1" stop-color="#29FFC6"/>
</linearGradient>
<linearGradient id="paint1_linear_179_177" x1="3.6665" y1="21.9629" x2="39.6598" y2="21.9629" gradientUnits="userSpaceOnUse">
<stop stop-color="#0CEBEB"/>
<stop offset="0.522565" stop-color="#24F4C0" stop-opacity="0.71"/>
<stop offset="1" stop-color="#29FFC6"/>
</linearGradient>
</defs>
</svg>
