<svg width="45" height="44" viewBox="0 0 45 44" fill="none" xmlns="http://www.w3.org/2000/svg">
<path d="M21.054 39.6289C21.4599 39.8657 21.6628 39.9841 21.9492 40.0455C22.1715 40.0932 22.4958 40.0932 22.7181 40.0455C23.0045 39.9841 23.2074 39.8657 23.6133 39.6289C27.1847 37.5454 37.0003 31.0004 37.0003 22.0016V13.2339C37.0003 11.7681 37.0003 11.0352 36.7606 10.4053C36.5488 9.84873 36.2047 9.35214 35.758 8.95844C35.2523 8.51277 34.566 8.25544 33.1936 7.74077L23.3636 4.05454C22.9825 3.91161 22.7919 3.84014 22.5959 3.81181C22.422 3.78669 22.2454 3.78669 22.0715 3.81181C21.8754 3.84014 21.6848 3.91161 21.3037 4.05454L11.4737 7.74077C10.1013 8.25544 9.41507 8.51277 8.90937 8.95844C8.46263 9.35214 8.1185 9.84873 7.90672 10.4053C7.66699 11.0352 7.66699 11.7681 7.66699 13.2339V22.0016C7.66699 31.0005 17.4826 37.5454 21.054 39.6289Z" fill="#26EAB8" fill-opacity="0.1"/>
<path d="M16.8337 21.085L20.5003 24.7516L28.7503 16.5016M37.0003 22.0016C37.0003 31.0004 27.1847 37.5454 23.6133 39.6289C23.2074 39.8657 23.0045 39.9841 22.7181 40.0455C22.4958 40.0932 22.1715 40.0932 21.9492 40.0455C21.6628 39.9841 21.4599 39.8657 21.054 39.6289C17.4826 37.5454 7.66699 31.0004 7.66699 22.0016V13.2339C7.66699 11.7681 7.66699 11.0352 7.90672 10.4053C8.1185 9.84873 8.46263 9.35214 8.90937 8.95844C9.41507 8.51277 10.1013 8.25544 11.4737 7.74077L21.3037 4.05454C21.6848 3.91161 21.8754 3.84014 22.0715 3.81181C22.2454 3.78669 22.422 3.78669 22.5959 3.81181C22.7919 3.84014 22.9825 3.91161 23.3636 4.05454L33.1936 7.74077C34.566 8.25544 35.2523 8.51277 35.758 8.95844C36.2047 9.35214 36.5488 9.84873 36.7606 10.4053C37.0003 11.0352 37.0003 11.7681 37.0003 13.2339V22.0016Z" stroke="url(#paint0_linear_72_681)" stroke-width="3" stroke-linecap="round" stroke-linejoin="round"/>
<defs>
<linearGradient id="paint0_linear_72_681" x1="7.66699" y1="21.9003" x2="36.4616" y2="21.9003" gradientUnits="userSpaceOnUse">
<stop stop-color="#0CEBEB"/>
<stop offset="0.522565" stop-color="#24F4C0" stop-opacity="0.71"/>
<stop offset="1" stop-color="#29FFC6"/>
</linearGradient>
</defs>
</svg>
